<svg width="836" height="568" viewBox="0 0 836 568" fill="none" xmlns="http://www.w3.org/2000/svg">
<rect width="836" height="568" fill="#E5E5E5"/>
<rect width="836" height="568" rx="5" fill="#E7D2EB"/>
<rect x="627" y="490" width="173" height="58" rx="20" fill="#D086C0"/>
<rect x="21" y="26" width="795" height="91" rx="15" fill="#D086C0"/>
<path d="M222.797 76.8789C222.48 79.5859 221.479 81.6777 219.791 83.1543C218.115 84.6191 215.883 85.3516 213.094 85.3516C210.07 85.3516 207.645 84.2676 205.816 82.0996C204 79.9316 203.092 77.0312 203.092 73.3984V70.9375C203.092 68.5586 203.514 66.4668 204.357 64.6621C205.213 62.8574 206.42 61.4746 207.979 60.5137C209.537 59.541 211.342 59.0547 213.393 59.0547C216.111 59.0547 218.291 59.8164 219.932 61.3398C221.572 62.8516 222.527 64.9492 222.797 67.6328H219.404C219.111 65.5938 218.473 64.1172 217.488 63.2031C216.516 62.2891 215.15 61.832 213.393 61.832C211.236 61.832 209.543 62.6289 208.312 64.2227C207.094 65.8164 206.484 68.084 206.484 71.0254V73.5039C206.484 76.2812 207.064 78.4902 208.225 80.1309C209.385 81.7715 211.008 82.5918 213.094 82.5918C214.969 82.5918 216.404 82.1699 217.4 81.3262C218.408 80.4707 219.076 78.9883 219.404 76.8789H222.797ZM241.553 78.3203H230.83L228.422 85H224.941L234.715 59.4062H237.668L247.459 85H243.996L241.553 78.3203ZM231.85 75.543H240.551L236.191 63.5723L231.85 75.543ZM260.291 74.6465H254.279V85H250.887V59.4062H259.359C262.242 59.4062 264.457 60.0625 266.004 61.375C267.562 62.6875 268.342 64.5977 268.342 67.1055C268.342 68.6992 267.908 70.0879 267.041 71.2715C266.186 72.4551 264.99 73.3398 263.455 73.9258L269.467 84.7891V85H265.846L260.291 74.6465ZM254.279 71.8867H259.465C261.141 71.8867 262.471 71.4531 263.455 70.5859C264.451 69.7188 264.949 68.5586 264.949 67.1055C264.949 65.5234 264.475 64.3105 263.525 63.4668C262.588 62.623 261.229 62.1953 259.447 62.1836H254.279V71.8867ZM292.775 73.0293C292.775 75.5371 292.354 77.7285 291.51 79.6035C290.666 81.4668 289.471 82.8906 287.924 83.875C286.377 84.8594 284.572 85.3516 282.51 85.3516C280.494 85.3516 278.707 84.8594 277.148 83.875C275.59 82.8789 274.377 81.4668 273.51 79.6387C272.654 77.7988 272.215 75.6719 272.191 73.2578V71.4121C272.191 68.9512 272.619 66.7773 273.475 64.8906C274.33 63.0039 275.537 61.5625 277.096 60.5664C278.666 59.5586 280.459 59.0547 282.475 59.0547C284.525 59.0547 286.33 59.5527 287.889 60.5488C289.459 61.5332 290.666 62.9688 291.51 64.8555C292.354 66.7305 292.775 68.916 292.775 71.4121V73.0293ZM289.418 71.377C289.418 68.3418 288.809 66.0156 287.59 64.3984C286.371 62.7695 284.666 61.9551 282.475 61.9551C280.342 61.9551 278.66 62.7695 277.43 64.3984C276.211 66.0156 275.584 68.2656 275.549 71.1484V73.0293C275.549 75.9707 276.164 78.2852 277.395 79.9727C278.637 81.6484 280.342 82.4863 282.51 82.4863C284.689 82.4863 286.377 81.6953 287.572 80.1133C288.768 78.5195 289.383 76.2402 289.418 73.2754V71.377ZM301.23 82.2402H313.359V85H297.838V59.4062H301.23V82.2402ZM320.602 82.2402H332.73V85H317.209V59.4062H320.602V82.2402ZM351.064 78.3203H340.342L337.934 85H334.453L344.227 59.4062H347.18L356.971 85H353.508L351.064 78.3203ZM341.361 75.543H350.062L345.703 63.5723L341.361 75.543ZM386.326 62.1836H378.1V85H374.742V62.1836H366.533V59.4062H386.326V62.1836ZM392.303 75.4551H383.725V72.8008H392.303V75.4551ZM403.535 73.5918C400.641 72.7598 398.531 71.7402 397.207 70.5332C395.895 69.3145 395.238 67.8145 395.238 66.0332C395.238 64.0176 396.041 62.3535 397.646 61.041C399.264 59.7168 401.361 59.0547 403.939 59.0547C405.697 59.0547 407.262 59.3945 408.633 60.0742C410.016 60.7539 411.082 61.6914 411.832 62.8867C412.594 64.082 412.975 65.3887 412.975 66.8066H409.582C409.582 65.2598 409.09 64.0469 408.105 63.168C407.121 62.2773 405.732 61.832 403.939 61.832C402.275 61.832 400.975 62.2012 400.037 62.9395C399.111 63.666 398.648 64.6797 398.648 65.9805C398.648 67.0234 399.088 67.9082 399.967 68.6348C400.857 69.3496 402.363 70.0059 404.484 70.6035C406.617 71.2012 408.281 71.8633 409.477 72.5898C410.684 73.3047 411.574 74.1426 412.148 75.1035C412.734 76.0645 413.027 77.1953 413.027 78.4961C413.027 80.5703 412.219 82.2344 410.602 83.4883C408.984 84.7305 406.822 85.3516 404.115 85.3516C402.357 85.3516 400.717 85.0176 399.193 84.3496C397.67 83.6699 396.492 82.7441 395.66 81.5723C394.84 80.4004 394.43 79.0703 394.43 77.582H397.822C397.822 79.1289 398.391 80.3535 399.527 81.2559C400.676 82.1465 402.205 82.5918 404.115 82.5918C405.896 82.5918 407.262 82.2285 408.211 81.502C409.16 80.7754 409.635 79.7852 409.635 78.5312C409.635 77.2773 409.195 76.3105 408.316 75.6309C407.438 74.9395 405.844 74.2598 403.535 73.5918ZM437.039 85H433.646V73.1699H420.744V85H417.369V59.4062H420.744V70.4102H433.646V59.4062H437.039V85ZM446.654 85H443.279V59.4062H446.654V85ZM462.229 74.6465H456.217V85H452.824V59.4062H461.297C464.18 59.4062 466.395 60.0625 467.941 61.375C469.5 62.6875 470.279 64.5977 470.279 67.1055C470.279 68.6992 469.846 70.0879 468.979 71.2715C468.123 72.4551 466.928 73.3398 465.393 73.9258L471.404 84.7891V85H467.783L462.229 74.6465ZM456.217 71.8867H461.402C463.078 71.8867 464.408 71.4531 465.393 70.5859C466.389 69.7188 466.887 68.5586 466.887 67.1055C466.887 65.5234 466.412 64.3105 465.463 63.4668C464.525 62.623 463.166 62.1953 461.385 62.1836H456.217V71.8867ZM491.303 62.1836H483.076V85H479.719V62.1836H471.51V59.4062H491.303V62.1836ZM502.359 73.5918C499.465 72.7598 497.355 71.7402 496.031 70.5332C494.719 69.3145 494.062 67.8145 494.062 66.0332C494.062 64.0176 494.865 62.3535 496.471 61.041C498.088 59.7168 500.186 59.0547 502.764 59.0547C504.521 59.0547 506.086 59.3945 507.457 60.0742C508.84 60.7539 509.906 61.6914 510.656 62.8867C511.418 64.082 511.799 65.3887 511.799 66.8066H508.406C508.406 65.2598 507.914 64.0469 506.93 63.168C505.945 62.2773 504.557 61.832 502.764 61.832C501.1 61.832 499.799 62.2012 498.861 62.9395C497.936 63.666 497.473 64.6797 497.473 65.9805C497.473 67.0234 497.912 67.9082 498.791 68.6348C499.682 69.3496 501.188 70.0059 503.309 70.6035C505.441 71.2012 507.105 71.8633 508.301 72.5898C509.508 73.3047 510.398 74.1426 510.973 75.1035C511.559 76.0645 511.852 77.1953 511.852 78.4961C511.852 80.5703 511.043 82.2344 509.426 83.4883C507.809 84.7305 505.646 85.3516 502.939 85.3516C501.182 85.3516 499.541 85.0176 498.018 84.3496C496.494 83.6699 495.316 82.7441 494.484 81.5723C493.664 80.4004 493.254 79.0703 493.254 77.582H496.646C496.646 79.1289 497.215 80.3535 498.352 81.2559C499.5 82.1465 501.029 82.5918 502.939 82.5918C504.721 82.5918 506.086 82.2285 507.035 81.502C507.984 80.7754 508.459 79.7852 508.459 78.5312C508.459 77.2773 508.02 76.3105 507.141 75.6309C506.262 74.9395 504.668 74.2598 502.359 73.5918Z" fill="black"/>
<path d="M100 45L108.083 63.3111H134.238L113.078 74.6279L121.16 92.9389L100 81.6221L78.8397 92.9389L86.9222 74.6279L65.762 63.3111H91.9175L100 45Z" fill="#C4C4C4"/>
<path d="M53.7227 176H51.3667L42.4189 162.304V176H40.063V158.227H42.4189L51.3911 171.984V158.227H53.7227V176ZM56.9331 169.274C56.9331 167.98 57.1854 166.816 57.6899 165.783C58.2026 164.749 58.9106 163.952 59.814 163.39C60.7254 162.829 61.763 162.548 62.9268 162.548C64.7253 162.548 66.1779 163.17 67.2847 164.416C68.3996 165.661 68.957 167.317 68.957 169.384V169.542C68.957 170.828 68.7088 171.984 68.2124 173.009C67.7241 174.027 67.0202 174.82 66.1006 175.39C65.1891 175.959 64.1393 176.244 62.9512 176.244C61.1608 176.244 59.7082 175.622 58.5933 174.376C57.4865 173.131 56.9331 171.483 56.9331 169.433V169.274ZM59.2036 169.542C59.2036 171.007 59.5413 172.183 60.2168 173.07C60.9004 173.957 61.8118 174.401 62.9512 174.401C64.0986 174.401 65.0101 173.953 65.6855 173.058C66.361 172.155 66.6987 170.893 66.6987 169.274C66.6987 167.825 66.3529 166.653 65.6611 165.758C64.9775 164.855 64.0661 164.403 62.9268 164.403C61.8118 164.403 60.9126 164.847 60.229 165.734C59.5454 166.621 59.2036 167.89 59.2036 169.542ZM73.9131 162.792L73.9741 164.257C74.9425 163.118 76.2487 162.548 77.8926 162.548C79.7399 162.548 80.9972 163.256 81.6646 164.672C82.104 164.037 82.6737 163.524 83.3735 163.134C84.0815 162.743 84.9157 162.548 85.876 162.548C88.7731 162.548 90.2461 164.082 90.2949 167.15V176H88.0366V167.284C88.0366 166.34 87.821 165.636 87.3896 165.172C86.9583 164.7 86.234 164.464 85.2168 164.464C84.3786 164.464 83.6828 164.717 83.1294 165.221C82.576 165.718 82.2546 166.389 82.165 167.235V176H79.8945V167.345C79.8945 165.425 78.9546 164.464 77.0747 164.464C75.5936 164.464 74.5804 165.095 74.0352 166.356V176H71.7769V162.792H73.9131ZM99.1938 176.244C97.4035 176.244 95.9468 175.658 94.8237 174.486C93.7007 173.306 93.1392 171.732 93.1392 169.762V169.347C93.1392 168.037 93.3874 166.869 93.8838 165.844C94.3883 164.81 95.0882 164.005 95.9834 163.427C96.8867 162.841 97.8633 162.548 98.9131 162.548C100.63 162.548 101.965 163.113 102.917 164.245C103.869 165.376 104.345 166.995 104.345 169.103V170.043H95.3975C95.43 171.345 95.8084 172.399 96.5327 173.205C97.2651 174.002 98.1929 174.401 99.3159 174.401C100.113 174.401 100.789 174.238 101.342 173.913C101.896 173.587 102.38 173.156 102.795 172.619L104.174 173.693C103.068 175.394 101.407 176.244 99.1938 176.244ZM98.9131 164.403C98.0016 164.403 97.2367 164.737 96.6182 165.404C95.9997 166.063 95.6172 166.991 95.4707 168.188H102.087V168.017C102.022 166.869 101.713 165.982 101.159 165.355C100.606 164.721 99.8571 164.403 98.9131 164.403ZM106.896 174.816C106.896 174.425 107.01 174.1 107.238 173.839C107.474 173.579 107.824 173.449 108.288 173.449C108.752 173.449 109.102 173.579 109.338 173.839C109.582 174.1 109.704 174.425 109.704 174.816C109.704 175.19 109.582 175.504 109.338 175.756C109.102 176.008 108.752 176.134 108.288 176.134C107.824 176.134 107.474 176.008 107.238 175.756C107.01 175.504 106.896 175.19 106.896 174.816ZM106.909 164.037C106.909 163.646 107.023 163.321 107.25 163.061C107.486 162.8 107.836 162.67 108.3 162.67C108.764 162.67 109.114 162.8 109.35 163.061C109.594 163.321 109.716 163.646 109.716 164.037C109.716 164.411 109.594 164.725 109.35 164.977C109.114 165.229 108.764 165.355 108.3 165.355C107.836 165.355 107.486 165.229 107.25 164.977C107.023 164.725 106.909 164.411 106.909 164.037Z" fill="black"/>
<path d="M136 171.5C136 165.149 141.149 160 147.5 160H788.5C794.851 160 800 165.149 800 171.5C800 177.851 794.851 183 788.5 183H147.5C141.149 183 136 177.851 136 171.5Z" fill="#BCB0B0"/>
<path d="M146 240C146 231.716 152.716 225 161 225H612C620.284 225 627 231.716 627 240V245C627 253.284 620.284 260 612 260H161C152.716 260 146 253.284 146 245V240Z" fill="#BCB0B0"/>
<path d="M64.1367 380.36C63.917 382.24 63.2212 383.693 62.0493 384.718C60.8856 385.736 59.3353 386.244 57.3984 386.244C55.2988 386.244 53.6143 385.491 52.3447 383.986C51.0833 382.48 50.4526 380.466 50.4526 377.943V376.234C50.4526 374.582 50.7456 373.13 51.3315 371.876C51.9256 370.623 52.7638 369.663 53.8462 368.996C54.9285 368.32 56.1818 367.982 57.606 367.982C59.494 367.982 61.0076 368.511 62.147 369.569C63.2863 370.619 63.9495 372.076 64.1367 373.939H61.7808C61.5773 372.523 61.1338 371.498 60.4502 370.863C59.7747 370.229 58.8267 369.911 57.606 369.911C56.1086 369.911 54.9326 370.465 54.0781 371.571C53.2318 372.678 52.8086 374.253 52.8086 376.295V378.017C52.8086 379.945 53.2114 381.479 54.0171 382.619C54.8228 383.758 55.9499 384.328 57.3984 384.328C58.7005 384.328 59.6974 384.035 60.3892 383.449C61.089 382.855 61.5529 381.825 61.7808 380.36H64.1367ZM66.395 379.274C66.395 377.98 66.6473 376.816 67.1519 375.783C67.6646 374.749 68.3726 373.952 69.2759 373.39C70.1873 372.829 71.2249 372.548 72.3887 372.548C74.1872 372.548 75.6398 373.17 76.7466 374.416C77.8615 375.661 78.4189 377.317 78.4189 379.384V379.542C78.4189 380.828 78.1707 381.984 77.6743 383.009C77.186 384.027 76.4821 384.82 75.5625 385.39C74.651 385.959 73.6012 386.244 72.4131 386.244C70.6227 386.244 69.1701 385.622 68.0552 384.376C66.9484 383.131 66.395 381.483 66.395 379.433V379.274ZM68.6655 379.542C68.6655 381.007 69.0033 382.183 69.6787 383.07C70.3623 383.957 71.2738 384.401 72.4131 384.401C73.5605 384.401 74.472 383.953 75.1475 383.058C75.8229 382.155 76.1606 380.893 76.1606 379.274C76.1606 377.825 75.8148 376.653 75.123 375.758C74.4395 374.855 73.528 374.403 72.3887 374.403C71.2738 374.403 70.3745 374.847 69.6909 375.734C69.0073 376.621 68.6655 377.89 68.6655 379.542ZM73.4141 367.25H76.1484L72.877 370.839H71.0581L73.4141 367.25ZM80.7017 379.286C80.7017 377.26 81.1818 375.632 82.1421 374.403C83.1024 373.166 84.3597 372.548 85.9141 372.548C87.4603 372.548 88.6851 373.077 89.5884 374.135V367.25H91.8467V386H89.7715L89.6616 384.584C88.7583 385.691 87.501 386.244 85.8896 386.244C84.3597 386.244 83.1105 385.618 82.1421 384.364C81.1818 383.111 80.7017 381.475 80.7017 379.457V379.286ZM82.96 379.542C82.96 381.04 83.2692 382.212 83.8877 383.058C84.5062 383.904 85.3607 384.328 86.4512 384.328C87.8835 384.328 88.9292 383.685 89.5884 382.399V376.332C88.9129 375.087 87.8753 374.464 86.4756 374.464C85.3688 374.464 84.5062 374.892 83.8877 375.746C83.2692 376.601 82.96 377.866 82.96 379.542ZM97.8159 386H95.5576V372.792H97.8159V386ZM95.3745 369.289C95.3745 368.922 95.4844 368.613 95.7041 368.361C95.932 368.109 96.2656 367.982 96.7051 367.982C97.1445 367.982 97.4782 368.109 97.7061 368.361C97.9339 368.613 98.0479 368.922 98.0479 369.289C98.0479 369.655 97.9339 369.96 97.7061 370.204C97.4782 370.448 97.1445 370.57 96.7051 370.57C96.2656 370.57 95.932 370.448 95.7041 370.204C95.4844 369.96 95.3745 369.655 95.3745 369.289ZM100.904 379.286C100.904 377.227 101.38 375.591 102.333 374.379C103.285 373.158 104.546 372.548 106.117 372.548C107.728 372.548 108.985 373.118 109.889 374.257L109.999 372.792H112.062V385.683C112.062 387.392 111.553 388.738 110.536 389.723C109.527 390.708 108.167 391.2 106.458 391.2C105.506 391.2 104.575 390.997 103.663 390.59C102.752 390.183 102.056 389.625 101.576 388.917L102.748 387.562C103.716 388.759 104.9 389.357 106.3 389.357C107.398 389.357 108.253 389.048 108.863 388.429C109.482 387.811 109.791 386.94 109.791 385.817V384.682C108.888 385.723 107.655 386.244 106.092 386.244C104.546 386.244 103.293 385.622 102.333 384.376C101.38 383.131 100.904 381.435 100.904 379.286ZM103.175 379.542C103.175 381.032 103.48 382.204 104.09 383.058C104.701 383.904 105.555 384.328 106.654 384.328C108.078 384.328 109.124 383.681 109.791 382.387V376.356C109.099 375.095 108.062 374.464 106.678 374.464C105.58 374.464 104.721 374.892 104.103 375.746C103.484 376.601 103.175 377.866 103.175 379.542ZM114.881 379.274C114.881 377.98 115.134 376.816 115.638 375.783C116.151 374.749 116.859 373.952 117.762 373.39C118.674 372.829 119.711 372.548 120.875 372.548C122.674 372.548 124.126 373.17 125.233 374.416C126.348 375.661 126.905 377.317 126.905 379.384V379.542C126.905 380.828 126.657 381.984 126.161 383.009C125.672 384.027 124.968 384.82 124.049 385.39C123.137 385.959 122.088 386.244 120.899 386.244C119.109 386.244 117.656 385.622 116.542 384.376C115.435 383.131 114.881 381.483 114.881 379.433V379.274ZM117.152 379.542C117.152 381.007 117.49 382.183 118.165 383.07C118.849 383.957 119.76 384.401 120.899 384.401C122.047 384.401 122.958 383.953 123.634 383.058C124.309 382.155 124.647 380.893 124.647 379.274C124.647 377.825 124.301 376.653 123.609 375.758C122.926 374.855 122.014 374.403 120.875 374.403C119.76 374.403 118.861 374.847 118.177 375.734C117.494 376.621 117.152 377.89 117.152 379.542ZM139.002 369.594V372.792H141.468V374.538H139.002V382.729C139.002 383.257 139.112 383.656 139.332 383.925C139.552 384.185 139.926 384.315 140.455 384.315C140.715 384.315 141.074 384.267 141.529 384.169V386C140.935 386.163 140.357 386.244 139.796 386.244C138.787 386.244 138.026 385.939 137.513 385.329C137 384.718 136.744 383.852 136.744 382.729V374.538H134.339V372.792H136.744V369.594H139.002ZM148.817 379.372H142.86V377.528H148.817V379.372ZM158.717 382.497C158.717 381.886 158.485 381.414 158.021 381.081C157.565 380.739 156.764 380.446 155.616 380.202C154.477 379.958 153.569 379.665 152.894 379.323C152.227 378.981 151.73 378.574 151.405 378.102C151.087 377.63 150.929 377.069 150.929 376.417C150.929 375.335 151.384 374.42 152.296 373.671C153.215 372.922 154.387 372.548 155.812 372.548C157.309 372.548 158.521 372.934 159.449 373.708C160.385 374.481 160.853 375.469 160.853 376.674H158.583C158.583 376.055 158.318 375.522 157.789 375.075C157.268 374.627 156.609 374.403 155.812 374.403C154.99 374.403 154.347 374.582 153.883 374.94C153.419 375.299 153.187 375.766 153.187 376.344C153.187 376.889 153.403 377.3 153.834 377.577C154.265 377.854 155.042 378.118 156.166 378.371C157.297 378.623 158.212 378.924 158.912 379.274C159.612 379.624 160.129 380.047 160.462 380.543C160.804 381.032 160.975 381.63 160.975 382.338C160.975 383.518 160.503 384.466 159.559 385.182C158.615 385.89 157.39 386.244 155.885 386.244C154.827 386.244 153.891 386.057 153.077 385.683C152.263 385.308 151.625 384.787 151.161 384.12C150.705 383.445 150.477 382.716 150.477 381.935H152.735C152.776 382.692 153.077 383.294 153.639 383.742C154.208 384.181 154.957 384.401 155.885 384.401C156.739 384.401 157.423 384.23 157.936 383.888C158.456 383.538 158.717 383.074 158.717 382.497ZM166.175 374.391C167.176 373.162 168.478 372.548 170.082 372.548C172.873 372.548 174.281 374.123 174.305 377.272V386H172.047V377.26C172.039 376.308 171.819 375.604 171.388 375.148C170.965 374.692 170.301 374.464 169.398 374.464C168.666 374.464 168.023 374.66 167.469 375.05C166.916 375.441 166.485 375.954 166.175 376.588V386H163.917V367.25H166.175V374.391ZM180.14 386H177.882V372.792H180.14V386ZM177.699 369.289C177.699 368.922 177.809 368.613 178.028 368.361C178.256 368.109 178.59 367.982 179.029 367.982C179.469 367.982 179.802 368.109 180.03 368.361C180.258 368.613 180.372 368.922 180.372 369.289C180.372 369.655 180.258 369.96 180.03 370.204C179.802 370.448 179.469 370.57 179.029 370.57C178.59 370.57 178.256 370.448 178.028 370.204C177.809 369.96 177.699 369.655 177.699 369.289ZM190.15 374.818C189.808 374.761 189.438 374.733 189.039 374.733C187.558 374.733 186.553 375.364 186.024 376.625V386H183.766V372.792H185.963L186 374.318C186.74 373.138 187.79 372.548 189.149 372.548C189.588 372.548 189.922 372.605 190.15 372.719V374.818ZM195.912 369.594V372.792H198.377V374.538H195.912V382.729C195.912 383.257 196.021 383.656 196.241 383.925C196.461 384.185 196.835 384.315 197.364 384.315C197.625 384.315 197.983 384.267 198.438 384.169V386C197.844 386.163 197.267 386.244 196.705 386.244C195.696 386.244 194.935 385.939 194.422 385.329C193.91 384.718 193.653 383.852 193.653 382.729V374.538H191.249V372.792H193.653V369.594H195.912ZM212.708 386.244C210.918 386.244 209.461 385.658 208.338 384.486C207.215 383.306 206.654 381.732 206.654 379.762V379.347C206.654 378.037 206.902 376.869 207.398 375.844C207.903 374.81 208.603 374.005 209.498 373.427C210.401 372.841 211.378 372.548 212.428 372.548C214.145 372.548 215.479 373.113 216.432 374.245C217.384 375.376 217.86 376.995 217.86 379.103V380.043H208.912C208.945 381.345 209.323 382.399 210.047 383.205C210.78 384.002 211.708 384.401 212.831 384.401C213.628 384.401 214.304 384.238 214.857 383.913C215.41 383.587 215.895 383.156 216.31 382.619L217.689 383.693C216.582 385.394 214.922 386.244 212.708 386.244ZM212.428 374.403C211.516 374.403 210.751 374.737 210.133 375.404C209.514 376.063 209.132 376.991 208.985 378.188H215.602V378.017C215.536 376.869 215.227 375.982 214.674 375.355C214.12 374.721 213.372 374.403 212.428 374.403ZM228.175 382.497C228.175 381.886 227.943 381.414 227.479 381.081C227.023 380.739 226.222 380.446 225.074 380.202C223.935 379.958 223.028 379.665 222.352 379.323C221.685 378.981 221.188 378.574 220.863 378.102C220.545 377.63 220.387 377.069 220.387 376.417C220.387 375.335 220.842 374.42 221.754 373.671C222.674 372.922 223.845 372.548 225.27 372.548C226.767 372.548 227.979 372.934 228.907 373.708C229.843 374.481 230.311 375.469 230.311 376.674H228.041C228.041 376.055 227.776 375.522 227.247 375.075C226.726 374.627 226.067 374.403 225.27 374.403C224.448 374.403 223.805 374.582 223.341 374.94C222.877 375.299 222.645 375.766 222.645 376.344C222.645 376.889 222.861 377.3 223.292 377.577C223.723 377.854 224.5 378.118 225.624 378.371C226.755 378.623 227.67 378.924 228.37 379.274C229.07 379.624 229.587 380.047 229.92 380.543C230.262 381.032 230.433 381.63 230.433 382.338C230.433 383.518 229.961 384.466 229.017 385.182C228.073 385.89 226.848 386.244 225.343 386.244C224.285 386.244 223.349 386.057 222.535 385.683C221.721 385.308 221.083 384.787 220.619 384.12C220.163 383.445 219.935 382.716 219.935 381.935H222.193C222.234 382.692 222.535 383.294 223.097 383.742C223.666 384.181 224.415 384.401 225.343 384.401C226.197 384.401 226.881 384.23 227.394 383.888C227.914 383.538 228.175 383.074 228.175 382.497ZM238.673 384.401C239.479 384.401 240.182 384.157 240.785 383.668C241.387 383.18 241.721 382.57 241.786 381.837H243.922C243.881 382.594 243.621 383.314 243.141 383.998C242.66 384.682 242.018 385.227 241.212 385.634C240.414 386.041 239.568 386.244 238.673 386.244C236.874 386.244 235.442 385.646 234.376 384.45C233.318 383.245 232.789 381.601 232.789 379.518V379.14C232.789 377.854 233.025 376.71 233.497 375.709C233.969 374.708 234.645 373.931 235.523 373.378C236.41 372.825 237.456 372.548 238.661 372.548C240.142 372.548 241.371 372.991 242.347 373.878C243.332 374.765 243.857 375.917 243.922 377.333H241.786C241.721 376.479 241.395 375.779 240.809 375.233C240.231 374.68 239.515 374.403 238.661 374.403C237.513 374.403 236.622 374.818 235.987 375.648C235.361 376.47 235.047 377.663 235.047 379.225V379.652C235.047 381.174 235.361 382.346 235.987 383.168C236.614 383.99 237.509 384.401 238.673 384.401ZM245.863 379.274C245.863 377.98 246.115 376.816 246.62 375.783C247.132 374.749 247.84 373.952 248.744 373.39C249.655 372.829 250.693 372.548 251.856 372.548C253.655 372.548 255.108 373.17 256.214 374.416C257.329 375.661 257.887 377.317 257.887 379.384V379.542C257.887 380.828 257.639 381.984 257.142 383.009C256.654 384.027 255.95 384.82 255.03 385.39C254.119 385.959 253.069 386.244 251.881 386.244C250.09 386.244 248.638 385.622 247.523 384.376C246.416 383.131 245.863 381.483 245.863 379.433V379.274ZM248.133 379.542C248.133 381.007 248.471 382.183 249.146 383.07C249.83 383.957 250.742 384.401 251.881 384.401C253.028 384.401 253.94 383.953 254.615 383.058C255.291 382.155 255.628 380.893 255.628 379.274C255.628 377.825 255.283 376.653 254.591 375.758C253.907 374.855 252.996 374.403 251.856 374.403C250.742 374.403 249.842 374.847 249.159 375.734C248.475 376.621 248.133 377.89 248.133 379.542ZM263.172 386H260.914V367.25H263.172V386ZM269.056 374.391C270.057 373.162 271.359 372.548 272.962 372.548C275.754 372.548 277.162 374.123 277.186 377.272V386H274.928V377.26C274.92 376.308 274.7 375.604 274.269 375.148C273.845 374.692 273.182 374.464 272.279 374.464C271.546 374.464 270.903 374.66 270.35 375.05C269.797 375.441 269.365 375.954 269.056 376.588V386H266.798V367.25H269.056V374.391ZM283.021 386H280.763V372.792H283.021V386ZM280.58 369.289C280.58 368.922 280.689 368.613 280.909 368.361C281.137 368.109 281.471 367.982 281.91 367.982C282.35 367.982 282.683 368.109 282.911 368.361C283.139 368.613 283.253 368.922 283.253 369.289C283.253 369.655 283.139 369.96 282.911 370.204C282.683 370.448 282.35 370.57 281.91 370.57C281.471 370.57 281.137 370.448 280.909 370.204C280.689 369.96 280.58 369.655 280.58 369.289ZM286.097 379.286C286.097 377.26 286.577 375.632 287.538 374.403C288.498 373.166 289.755 372.548 291.31 372.548C292.856 372.548 294.081 373.077 294.984 374.135V367.25H297.242V386H295.167L295.057 384.584C294.154 385.691 292.896 386.244 291.285 386.244C289.755 386.244 288.506 385.618 287.538 384.364C286.577 383.111 286.097 381.475 286.097 379.457V379.286ZM288.355 379.542C288.355 381.04 288.665 382.212 289.283 383.058C289.902 383.904 290.756 384.328 291.847 384.328C293.279 384.328 294.325 383.685 294.984 382.399V376.332C294.308 375.087 293.271 374.464 291.871 374.464C290.764 374.464 289.902 374.892 289.283 375.746C288.665 376.601 288.355 377.866 288.355 379.542ZM308.912 386C308.782 385.74 308.676 385.276 308.595 384.608C307.545 385.699 306.292 386.244 304.835 386.244C303.533 386.244 302.463 385.878 301.625 385.146C300.794 384.405 300.379 383.469 300.379 382.338C300.379 380.963 300.9 379.896 301.942 379.14C302.992 378.375 304.465 377.992 306.361 377.992H308.558V376.955C308.558 376.165 308.322 375.539 307.85 375.075C307.378 374.603 306.682 374.367 305.763 374.367C304.957 374.367 304.282 374.57 303.736 374.977C303.191 375.384 302.918 375.876 302.918 376.454H300.648C300.648 375.795 300.88 375.16 301.344 374.55C301.816 373.931 302.451 373.443 303.248 373.085C304.054 372.727 304.937 372.548 305.897 372.548C307.419 372.548 308.611 372.93 309.474 373.695C310.336 374.452 310.784 375.498 310.816 376.833V382.912C310.816 384.124 310.971 385.089 311.28 385.805V386H308.912ZM305.165 384.279C305.873 384.279 306.544 384.096 307.179 383.729C307.813 383.363 308.273 382.887 308.558 382.301V379.591H306.788C304.021 379.591 302.638 380.401 302.638 382.021C302.638 382.729 302.874 383.282 303.346 383.681C303.818 384.079 304.424 384.279 305.165 384.279ZM314.283 384.816C314.283 384.425 314.397 384.1 314.625 383.839C314.861 383.579 315.211 383.449 315.675 383.449C316.139 383.449 316.489 383.579 316.725 383.839C316.969 384.1 317.091 384.425 317.091 384.816C317.091 385.19 316.969 385.504 316.725 385.756C316.489 386.008 316.139 386.134 315.675 386.134C315.211 386.134 314.861 386.008 314.625 385.756C314.397 385.504 314.283 385.19 314.283 384.816ZM314.295 374.037C314.295 373.646 314.409 373.321 314.637 373.061C314.873 372.8 315.223 372.67 315.687 372.67C316.151 372.67 316.501 372.8 316.737 373.061C316.981 373.321 317.103 373.646 317.103 374.037C317.103 374.411 316.981 374.725 316.737 374.977C316.501 375.229 316.151 375.355 315.687 375.355C315.223 375.355 314.873 375.229 314.637 374.977C314.409 374.725 314.295 374.411 314.295 374.037Z" fill="black"/>
<rect x="327" y="362" width="161" height="23" rx="11.5" fill="#BCB0B0"/>
<path d="M61.1094 456.785H53.4067V463.083H62.3545V465H51.063V447.227H62.2324V449.155H53.4067V454.868H61.1094V456.785ZM67.0542 451.792L67.1274 453.452C68.1366 452.183 69.4549 451.548 71.0825 451.548C73.8739 451.548 75.2817 453.123 75.3062 456.272V465H73.0479V456.26C73.0397 455.308 72.82 454.604 72.3887 454.148C71.9655 453.692 71.3022 453.464 70.3989 453.464C69.6665 453.464 69.0236 453.66 68.4702 454.05C67.9168 454.441 67.4855 454.954 67.1763 455.588V465H64.918V451.792H67.0542ZM78.1626 458.286C78.1626 456.26 78.6427 454.632 79.603 453.403C80.5633 452.166 81.8206 451.548 83.375 451.548C84.9212 451.548 86.146 452.077 87.0493 453.135V446.25H89.3076V465H87.2324L87.1226 463.584C86.2192 464.691 84.9619 465.244 83.3506 465.244C81.8206 465.244 80.5715 464.618 79.603 463.364C78.6427 462.111 78.1626 460.475 78.1626 458.457V458.286ZM80.4209 458.542C80.4209 460.04 80.7301 461.212 81.3486 462.058C81.9671 462.904 82.8216 463.328 83.9121 463.328C85.3444 463.328 86.3901 462.685 87.0493 461.399V455.332C86.3739 454.087 85.3363 453.464 83.9365 453.464C82.8298 453.464 81.9671 453.892 81.3486 454.746C80.7301 455.601 80.4209 456.866 80.4209 458.542ZM98.3042 465.244C96.5138 465.244 95.0571 464.658 93.9341 463.486C92.811 462.306 92.2495 460.732 92.2495 458.762V458.347C92.2495 457.037 92.4977 455.869 92.9941 454.844C93.4987 453.81 94.1986 453.005 95.0938 452.427C95.9971 451.841 96.9736 451.548 98.0234 451.548C99.7406 451.548 101.075 452.113 102.027 453.245C102.979 454.376 103.456 455.995 103.456 458.103V459.043H94.5078C94.5404 460.345 94.9188 461.399 95.6431 462.205C96.3755 463.002 97.3032 463.401 98.4263 463.401C99.2238 463.401 99.8993 463.238 100.453 462.913C101.006 462.587 101.49 462.156 101.905 461.619L103.285 462.693C102.178 464.394 100.518 465.244 98.3042 465.244ZM98.0234 453.403C97.112 453.403 96.347 453.737 95.7285 454.404C95.11 455.063 94.7275 455.991 94.5811 457.188H101.197V457.017C101.132 455.869 100.823 454.982 100.27 454.355C99.7161 453.721 98.9674 453.403 98.0234 453.403ZM112.464 453.818C112.123 453.761 111.752 453.733 111.354 453.733C109.872 453.733 108.867 454.364 108.338 455.625V465H106.08V451.792H108.277L108.314 453.318C109.055 452.138 110.104 451.548 111.463 451.548C111.903 451.548 112.236 451.605 112.464 451.719V453.818ZM119.789 465.244C117.998 465.244 116.542 464.658 115.418 463.486C114.295 462.306 113.734 460.732 113.734 458.762V458.347C113.734 457.037 113.982 455.869 114.479 454.844C114.983 453.81 115.683 453.005 116.578 452.427C117.481 451.841 118.458 451.548 119.508 451.548C121.225 451.548 122.56 452.113 123.512 453.245C124.464 454.376 124.94 455.995 124.94 458.103V459.043H115.992C116.025 460.345 116.403 461.399 117.127 462.205C117.86 463.002 118.788 463.401 119.911 463.401C120.708 463.401 121.384 463.238 121.937 462.913C122.49 462.587 122.975 462.156 123.39 461.619L124.769 462.693C123.662 464.394 122.002 465.244 119.789 465.244ZM119.508 453.403C118.596 453.403 117.831 453.737 117.213 454.404C116.594 455.063 116.212 455.991 116.065 457.188H122.682V457.017C122.617 455.869 122.307 454.982 121.754 454.355C121.201 453.721 120.452 453.403 119.508 453.403ZM132.862 463.401C133.668 463.401 134.372 463.157 134.974 462.668C135.576 462.18 135.91 461.57 135.975 460.837H138.111C138.071 461.594 137.81 462.314 137.33 462.998C136.85 463.682 136.207 464.227 135.401 464.634C134.604 465.041 133.757 465.244 132.862 465.244C131.064 465.244 129.632 464.646 128.565 463.45C127.507 462.245 126.979 460.601 126.979 458.518V458.14C126.979 456.854 127.215 455.71 127.687 454.709C128.159 453.708 128.834 452.931 129.713 452.378C130.6 451.825 131.646 451.548 132.85 451.548C134.331 451.548 135.56 451.991 136.537 452.878C137.521 453.765 138.046 454.917 138.111 456.333H135.975C135.91 455.479 135.584 454.779 134.999 454.233C134.421 453.68 133.705 453.403 132.85 453.403C131.703 453.403 130.812 453.818 130.177 454.648C129.55 455.47 129.237 456.663 129.237 458.225V458.652C129.237 460.174 129.55 461.346 130.177 462.168C130.803 462.99 131.699 463.401 132.862 463.401ZM133.229 465.11L133.082 465.745C134.327 465.964 134.95 466.668 134.95 467.856C134.95 468.646 134.624 469.268 133.973 469.724C133.322 470.188 132.415 470.42 131.251 470.42L131.166 469.114C131.808 469.114 132.305 469.008 132.655 468.796C133.013 468.585 133.192 468.288 133.192 467.905C133.192 467.547 133.062 467.283 132.801 467.112C132.541 466.941 132.012 466.819 131.214 466.746L131.605 465.11H133.229ZM140.052 458.274C140.052 456.98 140.305 455.816 140.809 454.783C141.322 453.749 142.03 452.952 142.933 452.39C143.845 451.829 144.882 451.548 146.046 451.548C147.844 451.548 149.297 452.17 150.404 453.416C151.519 454.661 152.076 456.317 152.076 458.384V458.542C152.076 459.828 151.828 460.984 151.332 462.009C150.843 463.027 150.139 463.82 149.22 464.39C148.308 464.959 147.258 465.244 146.07 465.244C144.28 465.244 142.827 464.622 141.712 463.376C140.606 462.131 140.052 460.483 140.052 458.433V458.274ZM142.323 458.542C142.323 460.007 142.66 461.183 143.336 462.07C144.02 462.957 144.931 463.401 146.07 463.401C147.218 463.401 148.129 462.953 148.805 462.058C149.48 461.155 149.818 459.893 149.818 458.274C149.818 456.825 149.472 455.653 148.78 454.758C148.097 453.855 147.185 453.403 146.046 453.403C144.931 453.403 144.032 453.847 143.348 454.734C142.665 455.621 142.323 456.89 142.323 458.542ZM160.56 458.286C160.56 456.26 161.04 454.632 162 453.403C162.961 452.166 164.218 451.548 165.772 451.548C167.319 451.548 168.543 452.077 169.447 453.135V446.25H171.705V465H169.63L169.52 463.584C168.617 464.691 167.359 465.244 165.748 465.244C164.218 465.244 162.969 464.618 162 463.364C161.04 462.111 160.56 460.475 160.56 458.457V458.286ZM162.818 458.542C162.818 460.04 163.128 461.212 163.746 462.058C164.365 462.904 165.219 463.328 166.31 463.328C167.742 463.328 168.788 462.685 169.447 461.399V455.332C168.771 454.087 167.734 453.464 166.334 453.464C165.227 453.464 164.365 453.892 163.746 454.746C163.128 455.601 162.818 456.866 162.818 458.542ZM180.702 465.244C178.911 465.244 177.455 464.658 176.332 463.486C175.208 462.306 174.647 460.732 174.647 458.762V458.347C174.647 457.037 174.895 455.869 175.392 454.844C175.896 453.81 176.596 453.005 177.491 452.427C178.395 451.841 179.371 451.548 180.421 451.548C182.138 451.548 183.473 452.113 184.425 453.245C185.377 454.376 185.853 455.995 185.853 458.103V459.043H176.905C176.938 460.345 177.316 461.399 178.041 462.205C178.773 463.002 179.701 463.401 180.824 463.401C181.621 463.401 182.297 463.238 182.85 462.913C183.403 462.587 183.888 462.156 184.303 461.619L185.682 462.693C184.575 464.394 182.915 465.244 180.702 465.244ZM180.421 453.403C179.509 453.403 178.744 453.737 178.126 454.404C177.507 455.063 177.125 455.991 176.979 457.188H183.595V457.017C183.53 455.869 183.22 454.982 182.667 454.355C182.114 453.721 181.365 453.403 180.421 453.403ZM200.16 465.244C198.369 465.244 196.913 464.658 195.79 463.486C194.667 462.306 194.105 460.732 194.105 458.762V458.347C194.105 457.037 194.353 455.869 194.85 454.844C195.354 453.81 196.054 453.005 196.949 452.427C197.853 451.841 198.829 451.548 199.879 451.548C201.596 451.548 202.931 452.113 203.883 453.245C204.835 454.376 205.311 455.995 205.311 458.103V459.043H196.363C196.396 460.345 196.774 461.399 197.499 462.205C198.231 463.002 199.159 463.401 200.282 463.401C201.079 463.401 201.755 463.238 202.308 462.913C202.861 462.587 203.346 462.156 203.761 461.619L205.14 462.693C204.033 464.394 202.373 465.244 200.16 465.244ZM199.879 453.403C198.967 453.403 198.202 453.737 197.584 454.404C196.965 455.063 196.583 455.991 196.437 457.188H203.053V457.017C202.988 455.869 202.678 454.982 202.125 454.355C201.572 453.721 200.823 453.403 199.879 453.403ZM210.072 451.792L210.145 453.452C211.154 452.183 212.472 451.548 214.1 451.548C216.891 451.548 218.299 453.123 218.324 456.272V465H216.065V456.26C216.057 455.308 215.838 454.604 215.406 454.148C214.983 453.692 214.32 453.464 213.417 453.464C212.684 453.464 212.041 453.66 211.488 454.05C210.934 454.441 210.503 454.954 210.194 455.588V465H207.936V451.792H210.072ZM224.793 448.594V451.792H227.259V453.538H224.793V461.729C224.793 462.257 224.903 462.656 225.123 462.925C225.343 463.185 225.717 463.315 226.246 463.315C226.507 463.315 226.865 463.267 227.32 463.169V465C226.726 465.163 226.148 465.244 225.587 465.244C224.578 465.244 223.817 464.939 223.304 464.329C222.792 463.718 222.535 462.852 222.535 461.729V453.538H220.13V451.792H222.535V448.594H224.793ZM236.292 453.818C235.951 453.761 235.58 453.733 235.182 453.733C233.701 453.733 232.695 454.364 232.167 455.625V465H229.908V451.792H232.105L232.142 453.318C232.883 452.138 233.932 451.548 235.292 451.548C235.731 451.548 236.065 451.605 236.292 451.719V453.818ZM243.617 465.244C241.826 465.244 240.37 464.658 239.247 463.486C238.124 462.306 237.562 460.732 237.562 458.762V458.347C237.562 457.037 237.81 455.869 238.307 454.844C238.811 453.81 239.511 453.005 240.406 452.427C241.31 451.841 242.286 451.548 243.336 451.548C245.053 451.548 246.388 452.113 247.34 453.245C248.292 454.376 248.768 455.995 248.768 458.103V459.043H239.82C239.853 460.345 240.231 461.399 240.956 462.205C241.688 463.002 242.616 463.401 243.739 463.401C244.536 463.401 245.212 463.238 245.765 462.913C246.319 462.587 246.803 462.156 247.218 461.619L248.597 462.693C247.49 464.394 245.83 465.244 243.617 465.244ZM243.336 453.403C242.424 453.403 241.66 453.737 241.041 454.404C240.423 455.063 240.04 455.991 239.894 457.188H246.51V457.017C246.445 455.869 246.135 454.982 245.582 454.355C245.029 453.721 244.28 453.403 243.336 453.403ZM250.855 458.286C250.855 456.227 251.332 454.591 252.284 453.379C253.236 452.158 254.497 451.548 256.068 451.548C257.679 451.548 258.937 452.118 259.84 453.257L259.95 451.792H262.013V464.683C262.013 466.392 261.504 467.738 260.487 468.723C259.478 469.708 258.119 470.2 256.41 470.2C255.458 470.2 254.526 469.997 253.614 469.59C252.703 469.183 252.007 468.625 251.527 467.917L252.699 466.562C253.667 467.759 254.851 468.357 256.251 468.357C257.35 468.357 258.204 468.048 258.814 467.429C259.433 466.811 259.742 465.94 259.742 464.817V463.682C258.839 464.723 257.606 465.244 256.043 465.244C254.497 465.244 253.244 464.622 252.284 463.376C251.332 462.131 250.855 460.435 250.855 458.286ZM253.126 458.542C253.126 460.032 253.431 461.204 254.042 462.058C254.652 462.904 255.506 463.328 256.605 463.328C258.029 463.328 259.075 462.681 259.742 461.387V455.356C259.05 454.095 258.013 453.464 256.629 453.464C255.531 453.464 254.672 453.892 254.054 454.746C253.435 455.601 253.126 456.866 253.126 458.542ZM273.585 465C273.455 464.74 273.349 464.276 273.268 463.608C272.218 464.699 270.965 465.244 269.508 465.244C268.206 465.244 267.136 464.878 266.297 464.146C265.467 463.405 265.052 462.469 265.052 461.338C265.052 459.963 265.573 458.896 266.615 458.14C267.665 457.375 269.138 456.992 271.034 456.992H273.231V455.955C273.231 455.165 272.995 454.539 272.523 454.075C272.051 453.603 271.355 453.367 270.436 453.367C269.63 453.367 268.954 453.57 268.409 453.977C267.864 454.384 267.591 454.876 267.591 455.454H265.321C265.321 454.795 265.553 454.16 266.017 453.55C266.489 452.931 267.123 452.443 267.921 452.085C268.727 451.727 269.61 451.548 270.57 451.548C272.092 451.548 273.284 451.93 274.146 452.695C275.009 453.452 275.457 454.498 275.489 455.833V461.912C275.489 463.124 275.644 464.089 275.953 464.805V465H273.585ZM269.837 463.279C270.545 463.279 271.217 463.096 271.852 462.729C272.486 462.363 272.946 461.887 273.231 461.301V458.591H271.461C268.694 458.591 267.311 459.401 267.311 461.021C267.311 461.729 267.547 462.282 268.019 462.681C268.491 463.079 269.097 463.279 269.837 463.279ZM278.956 463.816C278.956 463.425 279.07 463.1 279.298 462.839C279.534 462.579 279.884 462.449 280.348 462.449C280.812 462.449 281.161 462.579 281.397 462.839C281.642 463.1 281.764 463.425 281.764 463.816C281.764 464.19 281.642 464.504 281.397 464.756C281.161 465.008 280.812 465.134 280.348 465.134C279.884 465.134 279.534 465.008 279.298 464.756C279.07 464.504 278.956 464.19 278.956 463.816ZM278.968 453.037C278.968 452.646 279.082 452.321 279.31 452.061C279.546 451.8 279.896 451.67 280.36 451.67C280.824 451.67 281.174 451.8 281.41 452.061C281.654 452.321 281.776 452.646 281.776 453.037C281.776 453.411 281.654 453.725 281.41 453.977C281.174 454.229 280.824 454.355 280.36 454.355C279.896 454.355 279.546 454.229 279.31 453.977C279.082 453.725 278.968 453.411 278.968 453.037Z" fill="black"/>
<rect x="295" y="449" width="505" height="24" rx="12" fill="#BCB0B0"/>
<path d="M696.625 520.113H689.23V526.16H697.82V528H686.98V510.938H697.703V512.789H689.23V518.273H696.625V520.113ZM702.332 515.32L702.402 516.914C703.371 515.695 704.637 515.086 706.199 515.086C708.879 515.086 710.23 516.598 710.254 519.621V528H708.086V519.609C708.078 518.695 707.867 518.02 707.453 517.582C707.047 517.145 706.41 516.926 705.543 516.926C704.84 516.926 704.223 517.113 703.691 517.488C703.16 517.863 702.746 518.355 702.449 518.965V528H700.281V515.32H702.332ZM717.707 525.059L720.848 515.32H723.062L718.516 528H716.863L712.27 515.32H714.484L717.707 525.059ZM727.504 528H725.336V515.32H727.504V528ZM725.16 511.957C725.16 511.605 725.266 511.309 725.477 511.066C725.695 510.824 726.016 510.703 726.438 510.703C726.859 510.703 727.18 510.824 727.398 511.066C727.617 511.309 727.727 511.605 727.727 511.957C727.727 512.309 727.617 512.602 727.398 512.836C727.18 513.07 726.859 513.188 726.438 513.188C726.016 513.188 725.695 513.07 725.477 512.836C725.266 512.602 725.16 512.309 725.16 511.957ZM738.812 528C738.688 527.75 738.586 527.305 738.508 526.664C737.5 527.711 736.297 528.234 734.898 528.234C733.648 528.234 732.621 527.883 731.816 527.18C731.02 526.469 730.621 525.57 730.621 524.484C730.621 523.164 731.121 522.141 732.121 521.414C733.129 520.68 734.543 520.312 736.363 520.312H738.473V519.316C738.473 518.559 738.246 517.957 737.793 517.512C737.34 517.059 736.672 516.832 735.789 516.832C735.016 516.832 734.367 517.027 733.844 517.418C733.32 517.809 733.059 518.281 733.059 518.836H730.879C730.879 518.203 731.102 517.594 731.547 517.008C732 516.414 732.609 515.945 733.375 515.602C734.148 515.258 734.996 515.086 735.918 515.086C737.379 515.086 738.523 515.453 739.352 516.188C740.18 516.914 740.609 517.918 740.641 519.199V525.035C740.641 526.199 740.789 527.125 741.086 527.812V528H738.812ZM735.215 526.348C735.895 526.348 736.539 526.172 737.148 525.82C737.758 525.469 738.199 525.012 738.473 524.449V521.848H736.773C734.117 521.848 732.789 522.625 732.789 524.18C732.789 524.859 733.016 525.391 733.469 525.773C733.922 526.156 734.504 526.348 735.215 526.348ZM750.168 517.266C749.84 517.211 749.484 517.184 749.102 517.184C747.68 517.184 746.715 517.789 746.207 519V528H744.039V515.32H746.148L746.184 516.785C746.895 515.652 747.902 515.086 749.207 515.086C749.629 515.086 749.949 515.141 750.168 515.25V517.266Z" fill="black"/>
<path d="M183.3 240.078C181.29 239.5 179.825 238.792 178.905 237.954C177.994 237.107 177.538 236.066 177.538 234.829C177.538 233.429 178.096 232.273 179.21 231.362C180.333 230.442 181.79 229.982 183.581 229.982C184.801 229.982 185.888 230.218 186.84 230.69C187.8 231.162 188.541 231.813 189.062 232.644C189.59 233.474 189.855 234.381 189.855 235.366H187.499C187.499 234.292 187.157 233.449 186.474 232.839C185.79 232.22 184.826 231.911 183.581 231.911C182.425 231.911 181.522 232.167 180.871 232.68C180.228 233.185 179.906 233.889 179.906 234.792C179.906 235.516 180.211 236.131 180.822 236.635C181.44 237.132 182.486 237.587 183.959 238.002C185.44 238.417 186.596 238.877 187.426 239.382C188.264 239.878 188.882 240.46 189.281 241.127C189.688 241.795 189.892 242.58 189.892 243.483C189.892 244.924 189.33 246.079 188.207 246.95C187.084 247.813 185.583 248.244 183.703 248.244C182.482 248.244 181.343 248.012 180.285 247.548C179.227 247.076 178.409 246.433 177.831 245.62C177.261 244.806 176.977 243.882 176.977 242.849H179.333C179.333 243.923 179.727 244.773 180.517 245.4C181.314 246.018 182.376 246.328 183.703 246.328C184.94 246.328 185.888 246.075 186.547 245.571C187.206 245.066 187.536 244.379 187.536 243.508C187.536 242.637 187.23 241.966 186.62 241.494C186.01 241.014 184.903 240.542 183.3 240.078ZM198.034 248.244C196.243 248.244 194.787 247.658 193.664 246.486C192.541 245.306 191.979 243.732 191.979 241.762V241.347C191.979 240.037 192.227 238.869 192.724 237.844C193.228 236.81 193.928 236.005 194.823 235.427C195.727 234.841 196.703 234.548 197.753 234.548C199.47 234.548 200.805 235.113 201.757 236.245C202.709 237.376 203.185 238.995 203.185 241.103V242.043H194.237C194.27 243.345 194.648 244.399 195.373 245.205C196.105 246.002 197.033 246.401 198.156 246.401C198.953 246.401 199.629 246.238 200.182 245.913C200.736 245.587 201.22 245.156 201.635 244.619L203.014 245.693C201.907 247.394 200.247 248.244 198.034 248.244ZM197.753 236.403C196.841 236.403 196.076 236.737 195.458 237.404C194.84 238.063 194.457 238.991 194.311 240.188H200.927V240.017C200.862 238.869 200.552 237.982 199.999 237.355C199.446 236.721 198.697 236.403 197.753 236.403ZM208.263 248H206.005V229.25H208.263V248ZM217.37 248.244C215.579 248.244 214.123 247.658 213 246.486C211.876 245.306 211.315 243.732 211.315 241.762V241.347C211.315 240.037 211.563 238.869 212.06 237.844C212.564 236.81 213.264 236.005 214.159 235.427C215.062 234.841 216.039 234.548 217.089 234.548C218.806 234.548 220.141 235.113 221.093 236.245C222.045 237.376 222.521 238.995 222.521 241.103V242.043H213.573C213.606 243.345 213.984 244.399 214.708 245.205C215.441 246.002 216.369 246.401 217.492 246.401C218.289 246.401 218.965 246.238 219.518 245.913C220.071 245.587 220.556 245.156 220.971 244.619L222.35 245.693C221.243 247.394 219.583 248.244 217.37 248.244ZM217.089 236.403C216.177 236.403 215.412 236.737 214.794 237.404C214.175 238.063 213.793 238.991 213.646 240.188H220.263V240.017C220.198 238.869 219.888 237.982 219.335 237.355C218.782 236.721 218.033 236.403 217.089 236.403ZM230.443 246.401C231.249 246.401 231.953 246.157 232.555 245.668C233.157 245.18 233.491 244.57 233.556 243.837H235.692C235.652 244.594 235.391 245.314 234.911 245.998C234.431 246.682 233.788 247.227 232.982 247.634C232.185 248.041 231.339 248.244 230.443 248.244C228.645 248.244 227.213 247.646 226.146 246.45C225.089 245.245 224.56 243.601 224.56 241.518V241.14C224.56 239.854 224.796 238.71 225.268 237.709C225.74 236.708 226.415 235.931 227.294 235.378C228.181 234.825 229.227 234.548 230.431 234.548C231.912 234.548 233.141 234.991 234.118 235.878C235.102 236.765 235.627 237.917 235.692 239.333H233.556C233.491 238.479 233.166 237.779 232.58 237.233C232.002 236.68 231.286 236.403 230.431 236.403C229.284 236.403 228.393 236.818 227.758 237.648C227.131 238.47 226.818 239.663 226.818 241.225V241.652C226.818 243.174 227.131 244.346 227.758 245.168C228.384 245.99 229.28 246.401 230.443 246.401ZM240.685 248H238.427V234.792H240.685V248ZM238.244 231.289C238.244 230.922 238.354 230.613 238.573 230.361C238.801 230.109 239.135 229.982 239.574 229.982C240.014 229.982 240.347 230.109 240.575 230.361C240.803 230.613 240.917 230.922 240.917 231.289C240.917 231.655 240.803 231.96 240.575 232.204C240.347 232.448 240.014 232.57 239.574 232.57C239.135 232.57 238.801 232.448 238.573 232.204C238.354 231.96 238.244 231.655 238.244 231.289ZM243.712 241.274C243.712 239.98 243.965 238.816 244.469 237.783C244.982 236.749 245.69 235.952 246.593 235.39C247.505 234.829 248.542 234.548 249.706 234.548C251.505 234.548 252.957 235.17 254.064 236.416C255.179 237.661 255.736 239.317 255.736 241.384V241.542C255.736 242.828 255.488 243.984 254.992 245.009C254.503 246.027 253.799 246.82 252.88 247.39C251.968 247.959 250.919 248.244 249.73 248.244C247.94 248.244 246.487 247.622 245.373 246.376C244.266 245.131 243.712 243.483 243.712 241.433V241.274ZM245.983 241.542C245.983 243.007 246.321 244.183 246.996 245.07C247.68 245.957 248.591 246.401 249.73 246.401C250.878 246.401 251.789 245.953 252.465 245.058C253.14 244.155 253.478 242.893 253.478 241.274C253.478 239.825 253.132 238.653 252.44 237.758C251.757 236.855 250.845 236.403 249.706 236.403C248.591 236.403 247.692 236.847 247.008 237.734C246.325 238.621 245.983 239.89 245.983 241.542ZM260.705 234.792L260.778 236.452C261.787 235.183 263.105 234.548 264.733 234.548C267.524 234.548 268.932 236.123 268.957 239.272V248H266.698V239.26C266.69 238.308 266.47 237.604 266.039 237.148C265.616 236.692 264.953 236.464 264.049 236.464C263.317 236.464 262.674 236.66 262.121 237.05C261.567 237.441 261.136 237.954 260.827 238.588V248H258.568V234.792H260.705ZM277.843 248.244C276.053 248.244 274.596 247.658 273.473 246.486C272.35 245.306 271.789 243.732 271.789 241.762V241.347C271.789 240.037 272.037 238.869 272.533 237.844C273.038 236.81 273.738 236.005 274.633 235.427C275.536 234.841 276.513 234.548 277.562 234.548C279.28 234.548 280.614 235.113 281.566 236.245C282.519 237.376 282.995 238.995 282.995 241.103V242.043H274.047C274.079 243.345 274.458 244.399 275.182 245.205C275.915 246.002 276.842 246.401 277.965 246.401C278.763 246.401 279.438 246.238 279.992 245.913C280.545 245.587 281.029 245.156 281.444 244.619L282.824 245.693C281.717 247.394 280.057 248.244 277.843 248.244ZM277.562 236.403C276.651 236.403 275.886 236.737 275.268 237.404C274.649 238.063 274.267 238.991 274.12 240.188H280.736V240.017C280.671 238.869 280.362 237.982 279.809 237.355C279.255 236.721 278.507 236.403 277.562 236.403ZM299.511 244.497C299.511 243.886 299.279 243.414 298.815 243.081C298.359 242.739 297.558 242.446 296.41 242.202C295.271 241.958 294.363 241.665 293.688 241.323C293.021 240.981 292.524 240.574 292.199 240.102C291.881 239.63 291.723 239.069 291.723 238.417C291.723 237.335 292.178 236.42 293.09 235.671C294.009 234.922 295.181 234.548 296.605 234.548C298.103 234.548 299.315 234.934 300.243 235.708C301.179 236.481 301.647 237.469 301.647 238.674H299.376C299.376 238.055 299.112 237.522 298.583 237.075C298.062 236.627 297.403 236.403 296.605 236.403C295.784 236.403 295.141 236.582 294.677 236.94C294.213 237.299 293.981 237.766 293.981 238.344C293.981 238.889 294.197 239.3 294.628 239.577C295.059 239.854 295.836 240.118 296.959 240.371C298.091 240.623 299.006 240.924 299.706 241.274C300.406 241.624 300.923 242.047 301.256 242.543C301.598 243.032 301.769 243.63 301.769 244.338C301.769 245.518 301.297 246.466 300.353 247.182C299.409 247.89 298.184 248.244 296.679 248.244C295.621 248.244 294.685 248.057 293.871 247.683C293.057 247.308 292.418 246.787 291.955 246.12C291.499 245.445 291.271 244.716 291.271 243.935H293.529C293.57 244.692 293.871 245.294 294.433 245.742C295.002 246.181 295.751 246.401 296.679 246.401C297.533 246.401 298.217 246.23 298.729 245.888C299.25 245.538 299.511 245.074 299.511 244.497ZM310.192 248.244C308.402 248.244 306.945 247.658 305.822 246.486C304.699 245.306 304.137 243.732 304.137 241.762V241.347C304.137 240.037 304.385 238.869 304.882 237.844C305.386 236.81 306.086 236.005 306.981 235.427C307.885 234.841 308.861 234.548 309.911 234.548C311.628 234.548 312.963 235.113 313.915 236.245C314.867 237.376 315.343 238.995 315.343 241.103V242.043H306.396C306.428 243.345 306.806 244.399 307.531 245.205C308.263 246.002 309.191 246.401 310.314 246.401C311.111 246.401 311.787 246.238 312.34 245.913C312.894 245.587 313.378 245.156 313.793 244.619L315.172 245.693C314.066 247.394 312.405 248.244 310.192 248.244ZM309.911 236.403C309 236.403 308.235 236.737 307.616 237.404C306.998 238.063 306.615 238.991 306.469 240.188H313.085V240.017C313.02 238.869 312.711 237.982 312.157 237.355C311.604 236.721 310.855 236.403 309.911 236.403ZM326.122 246.694C325.243 247.727 323.953 248.244 322.252 248.244C320.845 248.244 319.77 247.837 319.03 247.023C318.297 246.201 317.927 244.989 317.919 243.386V234.792H320.177V243.325C320.177 245.327 320.991 246.328 322.619 246.328C324.344 246.328 325.491 245.685 326.061 244.399V234.792H328.319V248H326.171L326.122 246.694ZM341.027 231.594V234.792H343.493V236.538H341.027V244.729C341.027 245.257 341.137 245.656 341.356 245.925C341.576 246.185 341.951 246.315 342.479 246.315C342.74 246.315 343.098 246.267 343.554 246.169V248C342.96 248.163 342.382 248.244 341.82 248.244C340.811 248.244 340.05 247.939 339.538 247.329C339.025 246.718 338.769 245.852 338.769 244.729V236.538H336.364V234.792H338.769V231.594H341.027ZM354.296 248C354.166 247.74 354.06 247.276 353.979 246.608C352.929 247.699 351.675 248.244 350.219 248.244C348.917 248.244 347.847 247.878 347.008 247.146C346.178 246.405 345.763 245.469 345.763 244.338C345.763 242.963 346.284 241.896 347.326 241.14C348.375 240.375 349.848 239.992 351.745 239.992H353.942V238.955C353.942 238.165 353.706 237.539 353.234 237.075C352.762 236.603 352.066 236.367 351.146 236.367C350.341 236.367 349.665 236.57 349.12 236.977C348.575 237.384 348.302 237.876 348.302 238.454H346.032C346.032 237.795 346.264 237.16 346.728 236.55C347.2 235.931 347.834 235.443 348.632 235.085C349.438 234.727 350.32 234.548 351.281 234.548C352.803 234.548 353.995 234.93 354.857 235.695C355.72 236.452 356.168 237.498 356.2 238.833V244.912C356.2 246.124 356.355 247.089 356.664 247.805V248H354.296ZM350.548 246.279C351.256 246.279 351.928 246.096 352.562 245.729C353.197 245.363 353.657 244.887 353.942 244.301V241.591H352.172C349.405 241.591 348.021 242.401 348.021 244.021C348.021 244.729 348.257 245.282 348.729 245.681C349.201 246.079 349.808 246.279 350.548 246.279ZM361.864 234.792L361.925 236.257C362.894 235.118 364.2 234.548 365.844 234.548C367.691 234.548 368.948 235.256 369.616 236.672C370.055 236.037 370.625 235.524 371.325 235.134C372.033 234.743 372.867 234.548 373.827 234.548C376.724 234.548 378.197 236.082 378.246 239.15V248H375.988V239.284C375.988 238.34 375.772 237.636 375.341 237.172C374.91 236.7 374.185 236.464 373.168 236.464C372.33 236.464 371.634 236.717 371.081 237.221C370.527 237.718 370.206 238.389 370.116 239.235V248H367.846V239.345C367.846 237.425 366.906 236.464 365.026 236.464C363.545 236.464 362.532 237.095 361.986 238.356V248H359.728V234.792H361.864ZM389.818 248C389.688 247.74 389.582 247.276 389.501 246.608C388.451 247.699 387.198 248.244 385.741 248.244C384.439 248.244 383.369 247.878 382.531 247.146C381.701 246.405 381.286 245.469 381.286 244.338C381.286 242.963 381.806 241.896 382.848 241.14C383.898 240.375 385.371 239.992 387.267 239.992H389.464V238.955C389.464 238.165 389.228 237.539 388.756 237.075C388.284 236.603 387.589 236.367 386.669 236.367C385.863 236.367 385.188 236.57 384.643 236.977C384.097 237.384 383.825 237.876 383.825 238.454H381.554C381.554 237.795 381.786 237.16 382.25 236.55C382.722 235.931 383.357 235.443 384.154 235.085C384.96 234.727 385.843 234.548 386.803 234.548C388.325 234.548 389.517 234.93 390.38 235.695C391.243 236.452 391.69 237.498 391.723 238.833V244.912C391.723 246.124 391.877 247.089 392.187 247.805V248H389.818ZM386.071 246.279C386.779 246.279 387.45 246.096 388.085 245.729C388.72 245.363 389.18 244.887 389.464 244.301V241.591H387.694C384.927 241.591 383.544 242.401 383.544 244.021C383.544 244.729 383.78 245.282 384.252 245.681C384.724 246.079 385.33 246.279 386.071 246.279ZM397.399 234.792L397.472 236.452C398.481 235.183 399.8 234.548 401.427 234.548C404.219 234.548 405.626 236.123 405.651 239.272V248H403.393V239.26C403.384 238.308 403.165 237.604 402.733 237.148C402.31 236.692 401.647 236.464 400.744 236.464C400.011 236.464 399.368 236.66 398.815 237.05C398.262 237.441 397.83 237.954 397.521 238.588V248H395.263V234.792H397.399ZM411.315 236.391C412.316 235.162 413.618 234.548 415.221 234.548C418.013 234.548 419.42 236.123 419.445 239.272V248H417.187V239.26C417.178 238.308 416.959 237.604 416.527 237.148C416.104 236.692 415.441 236.464 414.538 236.464C413.805 236.464 413.162 236.66 412.609 237.05C412.056 237.441 411.624 237.954 411.315 238.588V248H409.057V229.25H411.315V236.391ZM422.228 241.274C422.228 239.98 422.48 238.816 422.985 237.783C423.498 236.749 424.206 235.952 425.109 235.39C426.02 234.829 427.058 234.548 428.222 234.548C430.02 234.548 431.473 235.17 432.58 236.416C433.694 237.661 434.252 239.317 434.252 241.384V241.542C434.252 242.828 434.004 243.984 433.507 245.009C433.019 246.027 432.315 246.82 431.396 247.39C430.484 247.959 429.434 248.244 428.246 248.244C426.456 248.244 425.003 247.622 423.888 246.376C422.781 245.131 422.228 243.483 422.228 241.433V241.274ZM424.499 241.542C424.499 243.007 424.836 244.183 425.512 245.07C426.195 245.957 427.107 246.401 428.246 246.401C429.394 246.401 430.305 245.953 430.98 245.058C431.656 244.155 431.994 242.893 431.994 241.274C431.994 239.825 431.648 238.653 430.956 237.758C430.272 236.855 429.361 236.403 428.222 236.403C427.107 236.403 426.208 236.847 425.524 237.734C424.84 238.621 424.499 239.89 424.499 241.542ZM437.011 246.816C437.011 246.425 437.125 246.1 437.353 245.839C437.589 245.579 437.938 245.449 438.402 245.449C438.866 245.449 439.216 245.579 439.452 245.839C439.696 246.1 439.818 246.425 439.818 246.816C439.818 247.19 439.696 247.504 439.452 247.756C439.216 248.008 438.866 248.134 438.402 248.134C437.938 248.134 437.589 248.008 437.353 247.756C437.125 247.504 437.011 247.19 437.011 246.816ZM437.023 236.037C437.023 235.646 437.137 235.321 437.365 235.061C437.601 234.8 437.951 234.67 438.415 234.67C438.878 234.67 439.228 234.8 439.464 235.061C439.708 235.321 439.831 235.646 439.831 236.037C439.831 236.411 439.708 236.725 439.464 236.977C439.228 237.229 438.878 237.355 438.415 237.355C437.951 237.355 437.601 237.229 437.365 236.977C437.137 236.725 437.023 236.411 437.023 236.037Z" fill="black"/>
<path d="M606 239L614.66 251.75H597.34L606 239Z" fill="#C4C4C4"/>
</svg>
