<svg width="836" height="568" viewBox="0 0 836 568" fill="none" xmlns="http://www.w3.org/2000/svg">
<rect width="836" height="568" fill="#E5E5E5"/>
<rect width="836" height="568" rx="5" fill="#E7D2EB"/>
<rect x="627" y="496" width="173" height="58" rx="20" fill="#D086C0"/>
<rect x="21" y="32" width="795" height="91" rx="15" fill="#D086C0"/>
<path d="M222.797 82.8789C222.48 85.5859 221.479 87.6777 219.791 89.1543C218.115 90.6191 215.883 91.3516 213.094 91.3516C210.07 91.3516 207.645 90.2676 205.816 88.0996C204 85.9316 203.092 83.0312 203.092 79.3984V76.9375C203.092 74.5586 203.514 72.4668 204.357 70.6621C205.213 68.8574 206.42 67.4746 207.979 66.5137C209.537 65.541 211.342 65.0547 213.393 65.0547C216.111 65.0547 218.291 65.8164 219.932 67.3398C221.572 68.8516 222.527 70.9492 222.797 73.6328H219.404C219.111 71.5938 218.473 70.1172 217.488 69.2031C216.516 68.2891 215.15 67.832 213.393 67.832C211.236 67.832 209.543 68.6289 208.312 70.2227C207.094 71.8164 206.484 74.084 206.484 77.0254V79.5039C206.484 82.2812 207.064 84.4902 208.225 86.1309C209.385 87.7715 211.008 88.5918 213.094 88.5918C214.969 88.5918 216.404 88.1699 217.4 87.3262C218.408 86.4707 219.076 84.9883 219.404 82.8789H222.797ZM241.553 84.3203H230.83L228.422 91H224.941L234.715 65.4062H237.668L247.459 91H243.996L241.553 84.3203ZM231.85 81.543H240.551L236.191 69.5723L231.85 81.543ZM260.291 80.6465H254.279V91H250.887V65.4062H259.359C262.242 65.4062 264.457 66.0625 266.004 67.375C267.562 68.6875 268.342 70.5977 268.342 73.1055C268.342 74.6992 267.908 76.0879 267.041 77.2715C266.186 78.4551 264.99 79.3398 263.455 79.9258L269.467 90.7891V91H265.846L260.291 80.6465ZM254.279 77.8867H259.465C261.141 77.8867 262.471 77.4531 263.455 76.5859C264.451 75.7188 264.949 74.5586 264.949 73.1055C264.949 71.5234 264.475 70.3105 263.525 69.4668C262.588 68.623 261.229 68.1953 259.447 68.1836H254.279V77.8867ZM292.775 79.0293C292.775 81.5371 292.354 83.7285 291.51 85.6035C290.666 87.4668 289.471 88.8906 287.924 89.875C286.377 90.8594 284.572 91.3516 282.51 91.3516C280.494 91.3516 278.707 90.8594 277.148 89.875C275.59 88.8789 274.377 87.4668 273.51 85.6387C272.654 83.7988 272.215 81.6719 272.191 79.2578V77.4121C272.191 74.9512 272.619 72.7773 273.475 70.8906C274.33 69.0039 275.537 67.5625 277.096 66.5664C278.666 65.5586 280.459 65.0547 282.475 65.0547C284.525 65.0547 286.33 65.5527 287.889 66.5488C289.459 67.5332 290.666 68.9688 291.51 70.8555C292.354 72.7305 292.775 74.916 292.775 77.4121V79.0293ZM289.418 77.377C289.418 74.3418 288.809 72.0156 287.59 70.3984C286.371 68.7695 284.666 67.9551 282.475 67.9551C280.342 67.9551 278.66 68.7695 277.43 70.3984C276.211 72.0156 275.584 74.2656 275.549 77.1484V79.0293C275.549 81.9707 276.164 84.2852 277.395 85.9727C278.637 87.6484 280.342 88.4863 282.51 88.4863C284.689 88.4863 286.377 87.6953 287.572 86.1133C288.768 84.5195 289.383 82.2402 289.418 79.2754V77.377ZM301.23 88.2402H313.359V91H297.838V65.4062H301.23V88.2402ZM320.602 88.2402H332.73V91H317.209V65.4062H320.602V88.2402ZM351.064 84.3203H340.342L337.934 91H334.453L344.227 65.4062H347.18L356.971 91H353.508L351.064 84.3203ZM341.361 81.543H350.062L345.703 69.5723L341.361 81.543ZM386.326 68.1836H378.1V91H374.742V68.1836H366.533V65.4062H386.326V68.1836ZM392.303 81.4551H383.725V78.8008H392.303V81.4551ZM403.535 79.5918C400.641 78.7598 398.531 77.7402 397.207 76.5332C395.895 75.3145 395.238 73.8145 395.238 72.0332C395.238 70.0176 396.041 68.3535 397.646 67.041C399.264 65.7168 401.361 65.0547 403.939 65.0547C405.697 65.0547 407.262 65.3945 408.633 66.0742C410.016 66.7539 411.082 67.6914 411.832 68.8867C412.594 70.082 412.975 71.3887 412.975 72.8066H409.582C409.582 71.2598 409.09 70.0469 408.105 69.168C407.121 68.2773 405.732 67.832 403.939 67.832C402.275 67.832 400.975 68.2012 400.037 68.9395C399.111 69.666 398.648 70.6797 398.648 71.9805C398.648 73.0234 399.088 73.9082 399.967 74.6348C400.857 75.3496 402.363 76.0059 404.484 76.6035C406.617 77.2012 408.281 77.8633 409.477 78.5898C410.684 79.3047 411.574 80.1426 412.148 81.1035C412.734 82.0645 413.027 83.1953 413.027 84.4961C413.027 86.5703 412.219 88.2344 410.602 89.4883C408.984 90.7305 406.822 91.3516 404.115 91.3516C402.357 91.3516 400.717 91.0176 399.193 90.3496C397.67 89.6699 396.492 88.7441 395.66 87.5723C394.84 86.4004 394.43 85.0703 394.43 83.582H397.822C397.822 85.1289 398.391 86.3535 399.527 87.2559C400.676 88.1465 402.205 88.5918 404.115 88.5918C405.896 88.5918 407.262 88.2285 408.211 87.502C409.16 86.7754 409.635 85.7852 409.635 84.5312C409.635 83.2773 409.195 82.3105 408.316 81.6309C407.438 80.9395 405.844 80.2598 403.535 79.5918ZM437.039 91H433.646V79.1699H420.744V91H417.369V65.4062H420.744V76.4102H433.646V65.4062H437.039V91ZM446.654 91H443.279V65.4062H446.654V91ZM462.229 80.6465H456.217V91H452.824V65.4062H461.297C464.18 65.4062 466.395 66.0625 467.941 67.375C469.5 68.6875 470.279 70.5977 470.279 73.1055C470.279 74.6992 469.846 76.0879 468.979 77.2715C468.123 78.4551 466.928 79.3398 465.393 79.9258L471.404 90.7891V91H467.783L462.229 80.6465ZM456.217 77.8867H461.402C463.078 77.8867 464.408 77.4531 465.393 76.5859C466.389 75.7188 466.887 74.5586 466.887 73.1055C466.887 71.5234 466.412 70.3105 465.463 69.4668C464.525 68.623 463.166 68.1953 461.385 68.1836H456.217V77.8867ZM491.303 68.1836H483.076V91H479.719V68.1836H471.51V65.4062H491.303V68.1836ZM502.359 79.5918C499.465 78.7598 497.355 77.7402 496.031 76.5332C494.719 75.3145 494.062 73.8145 494.062 72.0332C494.062 70.0176 494.865 68.3535 496.471 67.041C498.088 65.7168 500.186 65.0547 502.764 65.0547C504.521 65.0547 506.086 65.3945 507.457 66.0742C508.84 66.7539 509.906 67.6914 510.656 68.8867C511.418 70.082 511.799 71.3887 511.799 72.8066H508.406C508.406 71.2598 507.914 70.0469 506.93 69.168C505.945 68.2773 504.557 67.832 502.764 67.832C501.1 67.832 499.799 68.2012 498.861 68.9395C497.936 69.666 497.473 70.6797 497.473 71.9805C497.473 73.0234 497.912 73.9082 498.791 74.6348C499.682 75.3496 501.188 76.0059 503.309 76.6035C505.441 77.2012 507.105 77.8633 508.301 78.5898C509.508 79.3047 510.398 80.1426 510.973 81.1035C511.559 82.0645 511.852 83.1953 511.852 84.4961C511.852 86.5703 511.043 88.2344 509.426 89.4883C507.809 90.7305 505.646 91.3516 502.939 91.3516C501.182 91.3516 499.541 91.0176 498.018 90.3496C496.494 89.6699 495.316 88.7441 494.484 87.5723C493.664 86.4004 493.254 85.0703 493.254 83.582H496.646C496.646 85.1289 497.215 86.3535 498.352 87.2559C499.5 88.1465 501.029 88.5918 502.939 88.5918C504.721 88.5918 506.086 88.2285 507.035 87.502C507.984 86.7754 508.459 85.7852 508.459 84.5312C508.459 83.2773 508.02 82.3105 507.141 81.6309C506.262 80.9395 504.668 80.2598 502.359 79.5918Z" fill="black"/>
<path d="M100 51L108.083 69.3111H134.238L113.078 80.6279L121.16 98.9389L100 87.6221L78.8397 98.9389L86.9222 80.6279L65.762 69.3111H91.9175L100 51Z" fill="#C4C4C4"/>
<path d="M64.7227 182H62.3667L53.4189 168.304V182H51.063V164.227H53.4189L62.3911 177.984V164.227H64.7227V182ZM67.9331 175.274C67.9331 173.98 68.1854 172.816 68.6899 171.783C69.2026 170.749 69.9106 169.952 70.814 169.39C71.7254 168.829 72.763 168.548 73.9268 168.548C75.7253 168.548 77.1779 169.17 78.2847 170.416C79.3996 171.661 79.957 173.317 79.957 175.384V175.542C79.957 176.828 79.7088 177.984 79.2124 179.009C78.7241 180.027 78.0202 180.82 77.1006 181.39C76.1891 181.959 75.1393 182.244 73.9512 182.244C72.1608 182.244 70.7082 181.622 69.5933 180.376C68.4865 179.131 67.9331 177.483 67.9331 175.433V175.274ZM70.2036 175.542C70.2036 177.007 70.5413 178.183 71.2168 179.07C71.9004 179.957 72.8118 180.401 73.9512 180.401C75.0986 180.401 76.0101 179.953 76.6855 179.058C77.361 178.155 77.6987 176.893 77.6987 175.274C77.6987 173.825 77.3529 172.653 76.6611 171.758C75.9775 170.855 75.0661 170.403 73.9268 170.403C72.8118 170.403 71.9126 170.847 71.229 171.734C70.5454 172.621 70.2036 173.89 70.2036 175.542ZM84.9131 168.792L84.9741 170.257C85.9425 169.118 87.2487 168.548 88.8926 168.548C90.7399 168.548 91.9972 169.256 92.6646 170.672C93.104 170.037 93.6737 169.524 94.3735 169.134C95.0815 168.743 95.9157 168.548 96.876 168.548C99.7731 168.548 101.246 170.082 101.295 173.15V182H99.0366V173.284C99.0366 172.34 98.821 171.636 98.3896 171.172C97.9583 170.7 97.234 170.464 96.2168 170.464C95.3786 170.464 94.6828 170.717 94.1294 171.221C93.576 171.718 93.2546 172.389 93.165 173.235V182H90.8945V173.345C90.8945 171.425 89.9546 170.464 88.0747 170.464C86.5936 170.464 85.5804 171.095 85.0352 172.356V182H82.7769V168.792H84.9131ZM110.194 182.244C108.403 182.244 106.947 181.658 105.824 180.486C104.701 179.306 104.139 177.732 104.139 175.762V175.347C104.139 174.037 104.387 172.869 104.884 171.844C105.388 170.81 106.088 170.005 106.983 169.427C107.887 168.841 108.863 168.548 109.913 168.548C111.63 168.548 112.965 169.113 113.917 170.245C114.869 171.376 115.345 172.995 115.345 175.103V176.043H106.397C106.43 177.345 106.808 178.399 107.533 179.205C108.265 180.002 109.193 180.401 110.316 180.401C111.113 180.401 111.789 180.238 112.342 179.913C112.896 179.587 113.38 179.156 113.795 178.619L115.174 179.693C114.068 181.394 112.407 182.244 110.194 182.244ZM109.913 170.403C109.002 170.403 108.237 170.737 107.618 171.404C107 172.063 106.617 172.991 106.471 174.188H113.087V174.017C113.022 172.869 112.713 171.982 112.159 171.355C111.606 170.721 110.857 170.403 109.913 170.403ZM117.896 180.816C117.896 180.425 118.01 180.1 118.238 179.839C118.474 179.579 118.824 179.449 119.288 179.449C119.752 179.449 120.102 179.579 120.338 179.839C120.582 180.1 120.704 180.425 120.704 180.816C120.704 181.19 120.582 181.504 120.338 181.756C120.102 182.008 119.752 182.134 119.288 182.134C118.824 182.134 118.474 182.008 118.238 181.756C118.01 181.504 117.896 181.19 117.896 180.816ZM117.909 170.037C117.909 169.646 118.023 169.321 118.25 169.061C118.486 168.8 118.836 168.67 119.3 168.67C119.764 168.67 120.114 168.8 120.35 169.061C120.594 169.321 120.716 169.646 120.716 170.037C120.716 170.411 120.594 170.725 120.35 170.977C120.114 171.229 119.764 171.355 119.3 171.355C118.836 171.355 118.486 171.229 118.25 170.977C118.023 170.725 117.909 170.411 117.909 170.037Z" fill="black"/>
<path d="M136 177.5C136 171.149 141.149 166 147.5 166H788.5C794.851 166 800 171.149 800 177.5C800 183.851 794.851 189 788.5 189H147.5C141.149 189 136 183.851 136 177.5Z" fill="#BCB0B0"/>
<path d="M63.3433 232.155H57.6304V248H55.2988V232.155H49.5981V230.227H63.3433V232.155ZM72.3887 248C72.2585 247.74 72.1527 247.276 72.0713 246.608C71.0215 247.699 69.7682 248.244 68.3115 248.244C67.0094 248.244 65.9393 247.878 65.1011 247.146C64.271 246.405 63.856 245.469 63.856 244.338C63.856 242.963 64.3768 241.896 65.4185 241.14C66.4683 240.375 67.9412 239.992 69.8374 239.992H72.0347V238.955C72.0347 238.165 71.7987 237.539 71.3267 237.075C70.8547 236.603 70.1589 236.367 69.2393 236.367C68.4336 236.367 67.7581 236.57 67.2129 236.977C66.6676 237.384 66.395 237.876 66.395 238.454H64.1245C64.1245 237.795 64.3564 237.16 64.8203 236.55C65.2923 235.931 65.9271 235.443 66.7246 235.085C67.5303 234.727 68.4132 234.548 69.3735 234.548C70.8953 234.548 72.0876 234.93 72.9502 235.695C73.8128 236.452 74.2604 237.498 74.293 238.833V244.912C74.293 246.124 74.4476 247.089 74.7568 247.805V248H72.3887ZM68.6411 246.279C69.3491 246.279 70.0205 246.096 70.6553 245.729C71.29 245.363 71.7498 244.887 72.0347 244.301V241.591H70.2646C67.4977 241.591 66.1143 242.401 66.1143 244.021C66.1143 244.729 66.3503 245.282 66.8223 245.681C67.2943 246.079 67.9006 246.279 68.6411 246.279ZM79.957 234.792L80.0181 236.257C80.9865 235.118 82.2926 234.548 83.9365 234.548C85.7839 234.548 87.0412 235.256 87.7085 236.672C88.1479 236.037 88.7176 235.524 89.4175 235.134C90.1255 234.743 90.9596 234.548 91.9199 234.548C94.8171 234.548 96.29 236.082 96.3389 239.15V248H94.0806V239.284C94.0806 238.34 93.8649 237.636 93.4336 237.172C93.0023 236.7 92.278 236.464 91.2607 236.464C90.4225 236.464 89.7267 236.717 89.1733 237.221C88.62 237.718 88.2985 238.389 88.209 239.235V248H85.9385V239.345C85.9385 237.425 84.9985 236.464 83.1187 236.464C81.6375 236.464 80.6243 237.095 80.0791 238.356V248H77.8208V234.792H79.957ZM107.911 248C107.781 247.74 107.675 247.276 107.594 246.608C106.544 247.699 105.291 248.244 103.834 248.244C102.532 248.244 101.462 247.878 100.624 247.146C99.7935 246.405 99.3784 245.469 99.3784 244.338C99.3784 242.963 99.8993 241.896 100.941 241.14C101.991 240.375 103.464 239.992 105.36 239.992H107.557V238.955C107.557 238.165 107.321 237.539 106.849 237.075C106.377 236.603 105.681 236.367 104.762 236.367C103.956 236.367 103.281 236.57 102.735 236.977C102.19 237.384 101.917 237.876 101.917 238.454H99.647C99.647 237.795 99.8789 237.16 100.343 236.55C100.815 235.931 101.45 235.443 102.247 235.085C103.053 234.727 103.936 234.548 104.896 234.548C106.418 234.548 107.61 234.93 108.473 235.695C109.335 236.452 109.783 237.498 109.815 238.833V244.912C109.815 246.124 109.97 247.089 110.279 247.805V248H107.911ZM104.164 246.279C104.872 246.279 105.543 246.096 106.178 245.729C106.812 245.363 107.272 244.887 107.557 244.301V241.591H105.787C103.02 241.591 101.637 242.401 101.637 244.021C101.637 244.729 101.873 245.282 102.345 245.681C102.817 246.079 103.423 246.279 104.164 246.279ZM115.492 234.792L115.565 236.452C116.574 235.183 117.892 234.548 119.52 234.548C122.311 234.548 123.719 236.123 123.744 239.272V248H121.485V239.26C121.477 238.308 121.257 237.604 120.826 237.148C120.403 236.692 119.74 236.464 118.836 236.464C118.104 236.464 117.461 236.66 116.908 237.05C116.354 237.441 115.923 237.954 115.614 238.588V248H113.355V234.792H115.492ZM129.408 236.391C130.409 235.162 131.711 234.548 133.314 234.548C136.105 234.548 137.513 236.123 137.538 239.272V248H135.279V239.26C135.271 238.308 135.051 237.604 134.62 237.148C134.197 236.692 133.534 236.464 132.63 236.464C131.898 236.464 131.255 236.66 130.702 237.05C130.148 237.441 129.717 237.954 129.408 238.588V248H127.149V229.25H129.408V236.391ZM140.321 241.274C140.321 239.98 140.573 238.816 141.078 237.783C141.59 236.749 142.298 235.952 143.202 235.39C144.113 234.829 145.151 234.548 146.314 234.548C148.113 234.548 149.566 235.17 150.672 236.416C151.787 237.661 152.345 239.317 152.345 241.384V241.542C152.345 242.828 152.097 243.984 151.6 245.009C151.112 246.027 150.408 246.82 149.488 247.39C148.577 247.959 147.527 248.244 146.339 248.244C144.549 248.244 143.096 247.622 141.981 246.376C140.874 245.131 140.321 243.483 140.321 241.433V241.274ZM142.591 241.542C142.591 243.007 142.929 244.183 143.604 245.07C144.288 245.957 145.2 246.401 146.339 246.401C147.486 246.401 148.398 245.953 149.073 245.058C149.749 244.155 150.086 242.893 150.086 241.274C150.086 239.825 149.741 238.653 149.049 237.758C148.365 236.855 147.454 236.403 146.314 236.403C145.2 236.403 144.3 236.847 143.617 237.734C142.933 238.621 142.591 239.89 142.591 241.542ZM155.104 246.816C155.104 246.425 155.217 246.1 155.445 245.839C155.681 245.579 156.031 245.449 156.495 245.449C156.959 245.449 157.309 245.579 157.545 245.839C157.789 246.1 157.911 246.425 157.911 246.816C157.911 247.19 157.789 247.504 157.545 247.756C157.309 248.008 156.959 248.134 156.495 248.134C156.031 248.134 155.681 248.008 155.445 247.756C155.217 247.504 155.104 247.19 155.104 246.816ZM155.116 236.037C155.116 235.646 155.23 235.321 155.458 235.061C155.694 234.8 156.043 234.67 156.507 234.67C156.971 234.67 157.321 234.8 157.557 235.061C157.801 235.321 157.923 235.646 157.923 236.037C157.923 236.411 157.801 236.725 157.557 236.977C157.321 237.229 156.971 237.355 156.507 237.355C156.043 237.355 155.694 237.229 155.458 236.977C155.23 236.725 155.116 236.411 155.116 236.037Z" fill="black"/>
<ellipse cx="204" cy="244" rx="9" ry="11" fill="#BCB0B0"/>
<ellipse cx="204" cy="284" rx="9" ry="11" fill="#BCB0B0"/>
<path d="M213 322C213 328.075 208.971 333 204 333C199.029 333 195 328.075 195 322C195 315.925 199.029 311 204 311C208.971 311 213 315.925 213 322Z" fill="#BCB0B0"/>
<path d="M237.173 242.99V248H235.485V235.203H240.205C241.605 235.203 242.701 235.561 243.492 236.275C244.289 236.99 244.688 237.937 244.688 239.114C244.688 240.356 244.298 241.314 243.519 241.988C242.745 242.656 241.635 242.99 240.188 242.99H237.173ZM237.173 241.61H240.205C241.107 241.61 241.799 241.399 242.279 240.978C242.76 240.55 243 239.935 243 239.132C243 238.37 242.76 237.761 242.279 237.304C241.799 236.847 241.14 236.609 240.302 236.592H237.173V241.61Z" fill="black"/>
<path d="M232.665 279.203L236.849 289.645L241.032 279.203H243.221V292H241.533V287.017L241.691 281.638L237.49 292H236.198L232.006 281.664L232.173 287.017V292H230.485V279.203H232.665Z" fill="black"/>
<path d="M237.934 326.321C237.5 326.942 236.894 327.408 236.114 327.719C235.341 328.023 234.438 328.176 233.407 328.176C232.364 328.176 231.438 327.933 230.63 327.446C229.821 326.954 229.194 326.257 228.749 325.354C228.31 324.452 228.084 323.406 228.072 322.217V321.101C228.072 319.173 228.521 317.679 229.417 316.618C230.319 315.558 231.585 315.027 233.214 315.027C234.55 315.027 235.625 315.37 236.439 316.056C237.254 316.735 237.752 317.702 237.934 318.956H236.246C235.93 317.263 234.922 316.416 233.223 316.416C232.092 316.416 231.233 316.814 230.647 317.611C230.067 318.402 229.774 319.551 229.769 321.057V322.103C229.769 323.538 230.097 324.681 230.753 325.53C231.409 326.374 232.297 326.796 233.416 326.796C234.049 326.796 234.603 326.726 235.077 326.585C235.552 326.444 235.944 326.207 236.255 325.873V322.999H233.293V321.628H237.934V326.321Z" fill="black"/>
<path d="M64.1367 386.36C63.917 388.24 63.2212 389.693 62.0493 390.718C60.8856 391.736 59.3353 392.244 57.3984 392.244C55.2988 392.244 53.6143 391.491 52.3447 389.986C51.0833 388.48 50.4526 386.466 50.4526 383.943V382.234C50.4526 380.582 50.7456 379.13 51.3315 377.876C51.9256 376.623 52.7638 375.663 53.8462 374.996C54.9285 374.32 56.1818 373.982 57.606 373.982C59.494 373.982 61.0076 374.511 62.147 375.569C63.2863 376.619 63.9495 378.076 64.1367 379.939H61.7808C61.5773 378.523 61.1338 377.498 60.4502 376.863C59.7747 376.229 58.8267 375.911 57.606 375.911C56.1086 375.911 54.9326 376.465 54.0781 377.571C53.2318 378.678 52.8086 380.253 52.8086 382.295V384.017C52.8086 385.945 53.2114 387.479 54.0171 388.619C54.8228 389.758 55.9499 390.328 57.3984 390.328C58.7005 390.328 59.6974 390.035 60.3892 389.449C61.089 388.855 61.5529 387.825 61.7808 386.36H64.1367ZM66.395 385.274C66.395 383.98 66.6473 382.816 67.1519 381.783C67.6646 380.749 68.3726 379.952 69.2759 379.39C70.1873 378.829 71.2249 378.548 72.3887 378.548C74.1872 378.548 75.6398 379.17 76.7466 380.416C77.8615 381.661 78.4189 383.317 78.4189 385.384V385.542C78.4189 386.828 78.1707 387.984 77.6743 389.009C77.186 390.027 76.4821 390.82 75.5625 391.39C74.651 391.959 73.6012 392.244 72.4131 392.244C70.6227 392.244 69.1701 391.622 68.0552 390.376C66.9484 389.131 66.395 387.483 66.395 385.433V385.274ZM68.6655 385.542C68.6655 387.007 69.0033 388.183 69.6787 389.07C70.3623 389.957 71.2738 390.401 72.4131 390.401C73.5605 390.401 74.472 389.953 75.1475 389.058C75.8229 388.155 76.1606 386.893 76.1606 385.274C76.1606 383.825 75.8148 382.653 75.123 381.758C74.4395 380.855 73.528 380.403 72.3887 380.403C71.2738 380.403 70.3745 380.847 69.6909 381.734C69.0073 382.621 68.6655 383.89 68.6655 385.542ZM73.4141 373.25H76.1484L72.877 376.839H71.0581L73.4141 373.25ZM80.7017 385.286C80.7017 383.26 81.1818 381.632 82.1421 380.403C83.1024 379.166 84.3597 378.548 85.9141 378.548C87.4603 378.548 88.6851 379.077 89.5884 380.135V373.25H91.8467V392H89.7715L89.6616 390.584C88.7583 391.691 87.501 392.244 85.8896 392.244C84.3597 392.244 83.1105 391.618 82.1421 390.364C81.1818 389.111 80.7017 387.475 80.7017 385.457V385.286ZM82.96 385.542C82.96 387.04 83.2692 388.212 83.8877 389.058C84.5062 389.904 85.3607 390.328 86.4512 390.328C87.8835 390.328 88.9292 389.685 89.5884 388.399V382.332C88.9129 381.087 87.8753 380.464 86.4756 380.464C85.3688 380.464 84.5062 380.892 83.8877 381.746C83.2692 382.601 82.96 383.866 82.96 385.542ZM97.8159 392H95.5576V378.792H97.8159V392ZM95.3745 375.289C95.3745 374.922 95.4844 374.613 95.7041 374.361C95.932 374.109 96.2656 373.982 96.7051 373.982C97.1445 373.982 97.4782 374.109 97.7061 374.361C97.9339 374.613 98.0479 374.922 98.0479 375.289C98.0479 375.655 97.9339 375.96 97.7061 376.204C97.4782 376.448 97.1445 376.57 96.7051 376.57C96.2656 376.57 95.932 376.448 95.7041 376.204C95.4844 375.96 95.3745 375.655 95.3745 375.289ZM100.904 385.286C100.904 383.227 101.38 381.591 102.333 380.379C103.285 379.158 104.546 378.548 106.117 378.548C107.728 378.548 108.985 379.118 109.889 380.257L109.999 378.792H112.062V391.683C112.062 393.392 111.553 394.738 110.536 395.723C109.527 396.708 108.167 397.2 106.458 397.2C105.506 397.2 104.575 396.997 103.663 396.59C102.752 396.183 102.056 395.625 101.576 394.917L102.748 393.562C103.716 394.759 104.9 395.357 106.3 395.357C107.398 395.357 108.253 395.048 108.863 394.429C109.482 393.811 109.791 392.94 109.791 391.817V390.682C108.888 391.723 107.655 392.244 106.092 392.244C104.546 392.244 103.293 391.622 102.333 390.376C101.38 389.131 100.904 387.435 100.904 385.286ZM103.175 385.542C103.175 387.032 103.48 388.204 104.09 389.058C104.701 389.904 105.555 390.328 106.654 390.328C108.078 390.328 109.124 389.681 109.791 388.387V382.356C109.099 381.095 108.062 380.464 106.678 380.464C105.58 380.464 104.721 380.892 104.103 381.746C103.484 382.601 103.175 383.866 103.175 385.542ZM114.881 385.274C114.881 383.98 115.134 382.816 115.638 381.783C116.151 380.749 116.859 379.952 117.762 379.39C118.674 378.829 119.711 378.548 120.875 378.548C122.674 378.548 124.126 379.17 125.233 380.416C126.348 381.661 126.905 383.317 126.905 385.384V385.542C126.905 386.828 126.657 387.984 126.161 389.009C125.672 390.027 124.968 390.82 124.049 391.39C123.137 391.959 122.088 392.244 120.899 392.244C119.109 392.244 117.656 391.622 116.542 390.376C115.435 389.131 114.881 387.483 114.881 385.433V385.274ZM117.152 385.542C117.152 387.007 117.49 388.183 118.165 389.07C118.849 389.957 119.76 390.401 120.899 390.401C122.047 390.401 122.958 389.953 123.634 389.058C124.309 388.155 124.647 386.893 124.647 385.274C124.647 383.825 124.301 382.653 123.609 381.758C122.926 380.855 122.014 380.403 120.875 380.403C119.76 380.403 118.861 380.847 118.177 381.734C117.494 382.621 117.152 383.89 117.152 385.542ZM139.002 375.594V378.792H141.468V380.538H139.002V388.729C139.002 389.257 139.112 389.656 139.332 389.925C139.552 390.185 139.926 390.315 140.455 390.315C140.715 390.315 141.074 390.267 141.529 390.169V392C140.935 392.163 140.357 392.244 139.796 392.244C138.787 392.244 138.026 391.939 137.513 391.329C137 390.718 136.744 389.852 136.744 388.729V380.538H134.339V378.792H136.744V375.594H139.002ZM148.817 385.372H142.86V383.528H148.817V385.372ZM158.717 388.497C158.717 387.886 158.485 387.414 158.021 387.081C157.565 386.739 156.764 386.446 155.616 386.202C154.477 385.958 153.569 385.665 152.894 385.323C152.227 384.981 151.73 384.574 151.405 384.102C151.087 383.63 150.929 383.069 150.929 382.417C150.929 381.335 151.384 380.42 152.296 379.671C153.215 378.922 154.387 378.548 155.812 378.548C157.309 378.548 158.521 378.934 159.449 379.708C160.385 380.481 160.853 381.469 160.853 382.674H158.583C158.583 382.055 158.318 381.522 157.789 381.075C157.268 380.627 156.609 380.403 155.812 380.403C154.99 380.403 154.347 380.582 153.883 380.94C153.419 381.299 153.187 381.766 153.187 382.344C153.187 382.889 153.403 383.3 153.834 383.577C154.265 383.854 155.042 384.118 156.166 384.371C157.297 384.623 158.212 384.924 158.912 385.274C159.612 385.624 160.129 386.047 160.462 386.543C160.804 387.032 160.975 387.63 160.975 388.338C160.975 389.518 160.503 390.466 159.559 391.182C158.615 391.89 157.39 392.244 155.885 392.244C154.827 392.244 153.891 392.057 153.077 391.683C152.263 391.308 151.625 390.787 151.161 390.12C150.705 389.445 150.477 388.716 150.477 387.935H152.735C152.776 388.692 153.077 389.294 153.639 389.742C154.208 390.181 154.957 390.401 155.885 390.401C156.739 390.401 157.423 390.23 157.936 389.888C158.456 389.538 158.717 389.074 158.717 388.497ZM166.175 380.391C167.176 379.162 168.478 378.548 170.082 378.548C172.873 378.548 174.281 380.123 174.305 383.272V392H172.047V383.26C172.039 382.308 171.819 381.604 171.388 381.148C170.965 380.692 170.301 380.464 169.398 380.464C168.666 380.464 168.023 380.66 167.469 381.05C166.916 381.441 166.485 381.954 166.175 382.588V392H163.917V373.25H166.175V380.391ZM180.14 392H177.882V378.792H180.14V392ZM177.699 375.289C177.699 374.922 177.809 374.613 178.028 374.361C178.256 374.109 178.59 373.982 179.029 373.982C179.469 373.982 179.802 374.109 180.03 374.361C180.258 374.613 180.372 374.922 180.372 375.289C180.372 375.655 180.258 375.96 180.03 376.204C179.802 376.448 179.469 376.57 179.029 376.57C178.59 376.57 178.256 376.448 178.028 376.204C177.809 375.96 177.699 375.655 177.699 375.289ZM190.15 380.818C189.808 380.761 189.438 380.733 189.039 380.733C187.558 380.733 186.553 381.364 186.024 382.625V392H183.766V378.792H185.963L186 380.318C186.74 379.138 187.79 378.548 189.149 378.548C189.588 378.548 189.922 378.605 190.15 378.719V380.818ZM195.912 375.594V378.792H198.377V380.538H195.912V388.729C195.912 389.257 196.021 389.656 196.241 389.925C196.461 390.185 196.835 390.315 197.364 390.315C197.625 390.315 197.983 390.267 198.438 390.169V392C197.844 392.163 197.267 392.244 196.705 392.244C195.696 392.244 194.935 391.939 194.422 391.329C193.91 390.718 193.653 389.852 193.653 388.729V380.538H191.249V378.792H193.653V375.594H195.912ZM212.708 392.244C210.918 392.244 209.461 391.658 208.338 390.486C207.215 389.306 206.654 387.732 206.654 385.762V385.347C206.654 384.037 206.902 382.869 207.398 381.844C207.903 380.81 208.603 380.005 209.498 379.427C210.401 378.841 211.378 378.548 212.428 378.548C214.145 378.548 215.479 379.113 216.432 380.245C217.384 381.376 217.86 382.995 217.86 385.103V386.043H208.912C208.945 387.345 209.323 388.399 210.047 389.205C210.78 390.002 211.708 390.401 212.831 390.401C213.628 390.401 214.304 390.238 214.857 389.913C215.41 389.587 215.895 389.156 216.31 388.619L217.689 389.693C216.582 391.394 214.922 392.244 212.708 392.244ZM212.428 380.403C211.516 380.403 210.751 380.737 210.133 381.404C209.514 382.063 209.132 382.991 208.985 384.188H215.602V384.017C215.536 382.869 215.227 381.982 214.674 381.355C214.12 380.721 213.372 380.403 212.428 380.403ZM228.175 388.497C228.175 387.886 227.943 387.414 227.479 387.081C227.023 386.739 226.222 386.446 225.074 386.202C223.935 385.958 223.028 385.665 222.352 385.323C221.685 384.981 221.188 384.574 220.863 384.102C220.545 383.63 220.387 383.069 220.387 382.417C220.387 381.335 220.842 380.42 221.754 379.671C222.674 378.922 223.845 378.548 225.27 378.548C226.767 378.548 227.979 378.934 228.907 379.708C229.843 380.481 230.311 381.469 230.311 382.674H228.041C228.041 382.055 227.776 381.522 227.247 381.075C226.726 380.627 226.067 380.403 225.27 380.403C224.448 380.403 223.805 380.582 223.341 380.94C222.877 381.299 222.645 381.766 222.645 382.344C222.645 382.889 222.861 383.3 223.292 383.577C223.723 383.854 224.5 384.118 225.624 384.371C226.755 384.623 227.67 384.924 228.37 385.274C229.07 385.624 229.587 386.047 229.92 386.543C230.262 387.032 230.433 387.63 230.433 388.338C230.433 389.518 229.961 390.466 229.017 391.182C228.073 391.89 226.848 392.244 225.343 392.244C224.285 392.244 223.349 392.057 222.535 391.683C221.721 391.308 221.083 390.787 220.619 390.12C220.163 389.445 219.935 388.716 219.935 387.935H222.193C222.234 388.692 222.535 389.294 223.097 389.742C223.666 390.181 224.415 390.401 225.343 390.401C226.197 390.401 226.881 390.23 227.394 389.888C227.914 389.538 228.175 389.074 228.175 388.497ZM238.673 390.401C239.479 390.401 240.182 390.157 240.785 389.668C241.387 389.18 241.721 388.57 241.786 387.837H243.922C243.881 388.594 243.621 389.314 243.141 389.998C242.66 390.682 242.018 391.227 241.212 391.634C240.414 392.041 239.568 392.244 238.673 392.244C236.874 392.244 235.442 391.646 234.376 390.45C233.318 389.245 232.789 387.601 232.789 385.518V385.14C232.789 383.854 233.025 382.71 233.497 381.709C233.969 380.708 234.645 379.931 235.523 379.378C236.41 378.825 237.456 378.548 238.661 378.548C240.142 378.548 241.371 378.991 242.347 379.878C243.332 380.765 243.857 381.917 243.922 383.333H241.786C241.721 382.479 241.395 381.779 240.809 381.233C240.231 380.68 239.515 380.403 238.661 380.403C237.513 380.403 236.622 380.818 235.987 381.648C235.361 382.47 235.047 383.663 235.047 385.225V385.652C235.047 387.174 235.361 388.346 235.987 389.168C236.614 389.99 237.509 390.401 238.673 390.401ZM245.863 385.274C245.863 383.98 246.115 382.816 246.62 381.783C247.132 380.749 247.84 379.952 248.744 379.39C249.655 378.829 250.693 378.548 251.856 378.548C253.655 378.548 255.108 379.17 256.214 380.416C257.329 381.661 257.887 383.317 257.887 385.384V385.542C257.887 386.828 257.639 387.984 257.142 389.009C256.654 390.027 255.95 390.82 255.03 391.39C254.119 391.959 253.069 392.244 251.881 392.244C250.09 392.244 248.638 391.622 247.523 390.376C246.416 389.131 245.863 387.483 245.863 385.433V385.274ZM248.133 385.542C248.133 387.007 248.471 388.183 249.146 389.07C249.83 389.957 250.742 390.401 251.881 390.401C253.028 390.401 253.94 389.953 254.615 389.058C255.291 388.155 255.628 386.893 255.628 385.274C255.628 383.825 255.283 382.653 254.591 381.758C253.907 380.855 252.996 380.403 251.856 380.403C250.742 380.403 249.842 380.847 249.159 381.734C248.475 382.621 248.133 383.89 248.133 385.542ZM263.172 392H260.914V373.25H263.172V392ZM269.056 380.391C270.057 379.162 271.359 378.548 272.962 378.548C275.754 378.548 277.162 380.123 277.186 383.272V392H274.928V383.26C274.92 382.308 274.7 381.604 274.269 381.148C273.845 380.692 273.182 380.464 272.279 380.464C271.546 380.464 270.903 380.66 270.35 381.05C269.797 381.441 269.365 381.954 269.056 382.588V392H266.798V373.25H269.056V380.391ZM283.021 392H280.763V378.792H283.021V392ZM280.58 375.289C280.58 374.922 280.689 374.613 280.909 374.361C281.137 374.109 281.471 373.982 281.91 373.982C282.35 373.982 282.683 374.109 282.911 374.361C283.139 374.613 283.253 374.922 283.253 375.289C283.253 375.655 283.139 375.96 282.911 376.204C282.683 376.448 282.35 376.57 281.91 376.57C281.471 376.57 281.137 376.448 280.909 376.204C280.689 375.96 280.58 375.655 280.58 375.289ZM286.097 385.286C286.097 383.26 286.577 381.632 287.538 380.403C288.498 379.166 289.755 378.548 291.31 378.548C292.856 378.548 294.081 379.077 294.984 380.135V373.25H297.242V392H295.167L295.057 390.584C294.154 391.691 292.896 392.244 291.285 392.244C289.755 392.244 288.506 391.618 287.538 390.364C286.577 389.111 286.097 387.475 286.097 385.457V385.286ZM288.355 385.542C288.355 387.04 288.665 388.212 289.283 389.058C289.902 389.904 290.756 390.328 291.847 390.328C293.279 390.328 294.325 389.685 294.984 388.399V382.332C294.308 381.087 293.271 380.464 291.871 380.464C290.764 380.464 289.902 380.892 289.283 381.746C288.665 382.601 288.355 383.866 288.355 385.542ZM308.912 392C308.782 391.74 308.676 391.276 308.595 390.608C307.545 391.699 306.292 392.244 304.835 392.244C303.533 392.244 302.463 391.878 301.625 391.146C300.794 390.405 300.379 389.469 300.379 388.338C300.379 386.963 300.9 385.896 301.942 385.14C302.992 384.375 304.465 383.992 306.361 383.992H308.558V382.955C308.558 382.165 308.322 381.539 307.85 381.075C307.378 380.603 306.682 380.367 305.763 380.367C304.957 380.367 304.282 380.57 303.736 380.977C303.191 381.384 302.918 381.876 302.918 382.454H300.648C300.648 381.795 300.88 381.16 301.344 380.55C301.816 379.931 302.451 379.443 303.248 379.085C304.054 378.727 304.937 378.548 305.897 378.548C307.419 378.548 308.611 378.93 309.474 379.695C310.336 380.452 310.784 381.498 310.816 382.833V388.912C310.816 390.124 310.971 391.089 311.28 391.805V392H308.912ZM305.165 390.279C305.873 390.279 306.544 390.096 307.179 389.729C307.813 389.363 308.273 388.887 308.558 388.301V385.591H306.788C304.021 385.591 302.638 386.401 302.638 388.021C302.638 388.729 302.874 389.282 303.346 389.681C303.818 390.079 304.424 390.279 305.165 390.279ZM314.283 390.816C314.283 390.425 314.397 390.1 314.625 389.839C314.861 389.579 315.211 389.449 315.675 389.449C316.139 389.449 316.489 389.579 316.725 389.839C316.969 390.1 317.091 390.425 317.091 390.816C317.091 391.19 316.969 391.504 316.725 391.756C316.489 392.008 316.139 392.134 315.675 392.134C315.211 392.134 314.861 392.008 314.625 391.756C314.397 391.504 314.283 391.19 314.283 390.816ZM314.295 380.037C314.295 379.646 314.409 379.321 314.637 379.061C314.873 378.8 315.223 378.67 315.687 378.67C316.151 378.67 316.501 378.8 316.737 379.061C316.981 379.321 317.103 379.646 317.103 380.037C317.103 380.411 316.981 380.725 316.737 380.977C316.501 381.229 316.151 381.355 315.687 381.355C315.223 381.355 314.873 381.229 314.637 380.977C314.409 380.725 314.295 380.411 314.295 380.037Z" fill="black"/>
<rect x="327" y="368" width="161" height="23" rx="11.5" fill="#BCB0B0"/>
<path d="M61.1094 462.785H53.4067V469.083H62.3545V471H51.063V453.227H62.2324V455.155H53.4067V460.868H61.1094V462.785ZM67.0542 457.792L67.1274 459.452C68.1366 458.183 69.4549 457.548 71.0825 457.548C73.8739 457.548 75.2817 459.123 75.3062 462.272V471H73.0479V462.26C73.0397 461.308 72.82 460.604 72.3887 460.148C71.9655 459.692 71.3022 459.464 70.3989 459.464C69.6665 459.464 69.0236 459.66 68.4702 460.05C67.9168 460.441 67.4855 460.954 67.1763 461.588V471H64.918V457.792H67.0542ZM78.1626 464.286C78.1626 462.26 78.6427 460.632 79.603 459.403C80.5633 458.166 81.8206 457.548 83.375 457.548C84.9212 457.548 86.146 458.077 87.0493 459.135V452.25H89.3076V471H87.2324L87.1226 469.584C86.2192 470.691 84.9619 471.244 83.3506 471.244C81.8206 471.244 80.5715 470.618 79.603 469.364C78.6427 468.111 78.1626 466.475 78.1626 464.457V464.286ZM80.4209 464.542C80.4209 466.04 80.7301 467.212 81.3486 468.058C81.9671 468.904 82.8216 469.328 83.9121 469.328C85.3444 469.328 86.3901 468.685 87.0493 467.399V461.332C86.3739 460.087 85.3363 459.464 83.9365 459.464C82.8298 459.464 81.9671 459.892 81.3486 460.746C80.7301 461.601 80.4209 462.866 80.4209 464.542ZM98.3042 471.244C96.5138 471.244 95.0571 470.658 93.9341 469.486C92.811 468.306 92.2495 466.732 92.2495 464.762V464.347C92.2495 463.037 92.4977 461.869 92.9941 460.844C93.4987 459.81 94.1986 459.005 95.0938 458.427C95.9971 457.841 96.9736 457.548 98.0234 457.548C99.7406 457.548 101.075 458.113 102.027 459.245C102.979 460.376 103.456 461.995 103.456 464.103V465.043H94.5078C94.5404 466.345 94.9188 467.399 95.6431 468.205C96.3755 469.002 97.3032 469.401 98.4263 469.401C99.2238 469.401 99.8993 469.238 100.453 468.913C101.006 468.587 101.49 468.156 101.905 467.619L103.285 468.693C102.178 470.394 100.518 471.244 98.3042 471.244ZM98.0234 459.403C97.112 459.403 96.347 459.737 95.7285 460.404C95.11 461.063 94.7275 461.991 94.5811 463.188H101.197V463.017C101.132 461.869 100.823 460.982 100.27 460.355C99.7161 459.721 98.9674 459.403 98.0234 459.403ZM112.464 459.818C112.123 459.761 111.752 459.733 111.354 459.733C109.872 459.733 108.867 460.364 108.338 461.625V471H106.08V457.792H108.277L108.314 459.318C109.055 458.138 110.104 457.548 111.463 457.548C111.903 457.548 112.236 457.605 112.464 457.719V459.818ZM119.789 471.244C117.998 471.244 116.542 470.658 115.418 469.486C114.295 468.306 113.734 466.732 113.734 464.762V464.347C113.734 463.037 113.982 461.869 114.479 460.844C114.983 459.81 115.683 459.005 116.578 458.427C117.481 457.841 118.458 457.548 119.508 457.548C121.225 457.548 122.56 458.113 123.512 459.245C124.464 460.376 124.94 461.995 124.94 464.103V465.043H115.992C116.025 466.345 116.403 467.399 117.127 468.205C117.86 469.002 118.788 469.401 119.911 469.401C120.708 469.401 121.384 469.238 121.937 468.913C122.49 468.587 122.975 468.156 123.39 467.619L124.769 468.693C123.662 470.394 122.002 471.244 119.789 471.244ZM119.508 459.403C118.596 459.403 117.831 459.737 117.213 460.404C116.594 461.063 116.212 461.991 116.065 463.188H122.682V463.017C122.617 461.869 122.307 460.982 121.754 460.355C121.201 459.721 120.452 459.403 119.508 459.403ZM132.862 469.401C133.668 469.401 134.372 469.157 134.974 468.668C135.576 468.18 135.91 467.57 135.975 466.837H138.111C138.071 467.594 137.81 468.314 137.33 468.998C136.85 469.682 136.207 470.227 135.401 470.634C134.604 471.041 133.757 471.244 132.862 471.244C131.064 471.244 129.632 470.646 128.565 469.45C127.507 468.245 126.979 466.601 126.979 464.518V464.14C126.979 462.854 127.215 461.71 127.687 460.709C128.159 459.708 128.834 458.931 129.713 458.378C130.6 457.825 131.646 457.548 132.85 457.548C134.331 457.548 135.56 457.991 136.537 458.878C137.521 459.765 138.046 460.917 138.111 462.333H135.975C135.91 461.479 135.584 460.779 134.999 460.233C134.421 459.68 133.705 459.403 132.85 459.403C131.703 459.403 130.812 459.818 130.177 460.648C129.55 461.47 129.237 462.663 129.237 464.225V464.652C129.237 466.174 129.55 467.346 130.177 468.168C130.803 468.99 131.699 469.401 132.862 469.401ZM133.229 471.11L133.082 471.745C134.327 471.964 134.95 472.668 134.95 473.856C134.95 474.646 134.624 475.268 133.973 475.724C133.322 476.188 132.415 476.42 131.251 476.42L131.166 475.114C131.808 475.114 132.305 475.008 132.655 474.796C133.013 474.585 133.192 474.288 133.192 473.905C133.192 473.547 133.062 473.283 132.801 473.112C132.541 472.941 132.012 472.819 131.214 472.746L131.605 471.11H133.229ZM140.052 464.274C140.052 462.98 140.305 461.816 140.809 460.783C141.322 459.749 142.03 458.952 142.933 458.39C143.845 457.829 144.882 457.548 146.046 457.548C147.844 457.548 149.297 458.17 150.404 459.416C151.519 460.661 152.076 462.317 152.076 464.384V464.542C152.076 465.828 151.828 466.984 151.332 468.009C150.843 469.027 150.139 469.82 149.22 470.39C148.308 470.959 147.258 471.244 146.07 471.244C144.28 471.244 142.827 470.622 141.712 469.376C140.606 468.131 140.052 466.483 140.052 464.433V464.274ZM142.323 464.542C142.323 466.007 142.66 467.183 143.336 468.07C144.02 468.957 144.931 469.401 146.07 469.401C147.218 469.401 148.129 468.953 148.805 468.058C149.48 467.155 149.818 465.893 149.818 464.274C149.818 462.825 149.472 461.653 148.78 460.758C148.097 459.855 147.185 459.403 146.046 459.403C144.931 459.403 144.032 459.847 143.348 460.734C142.665 461.621 142.323 462.89 142.323 464.542ZM160.56 464.286C160.56 462.26 161.04 460.632 162 459.403C162.961 458.166 164.218 457.548 165.772 457.548C167.319 457.548 168.543 458.077 169.447 459.135V452.25H171.705V471H169.63L169.52 469.584C168.617 470.691 167.359 471.244 165.748 471.244C164.218 471.244 162.969 470.618 162 469.364C161.04 468.111 160.56 466.475 160.56 464.457V464.286ZM162.818 464.542C162.818 466.04 163.128 467.212 163.746 468.058C164.365 468.904 165.219 469.328 166.31 469.328C167.742 469.328 168.788 468.685 169.447 467.399V461.332C168.771 460.087 167.734 459.464 166.334 459.464C165.227 459.464 164.365 459.892 163.746 460.746C163.128 461.601 162.818 462.866 162.818 464.542ZM180.702 471.244C178.911 471.244 177.455 470.658 176.332 469.486C175.208 468.306 174.647 466.732 174.647 464.762V464.347C174.647 463.037 174.895 461.869 175.392 460.844C175.896 459.81 176.596 459.005 177.491 458.427C178.395 457.841 179.371 457.548 180.421 457.548C182.138 457.548 183.473 458.113 184.425 459.245C185.377 460.376 185.853 461.995 185.853 464.103V465.043H176.905C176.938 466.345 177.316 467.399 178.041 468.205C178.773 469.002 179.701 469.401 180.824 469.401C181.621 469.401 182.297 469.238 182.85 468.913C183.403 468.587 183.888 468.156 184.303 467.619L185.682 468.693C184.575 470.394 182.915 471.244 180.702 471.244ZM180.421 459.403C179.509 459.403 178.744 459.737 178.126 460.404C177.507 461.063 177.125 461.991 176.979 463.188H183.595V463.017C183.53 461.869 183.22 460.982 182.667 460.355C182.114 459.721 181.365 459.403 180.421 459.403ZM200.16 471.244C198.369 471.244 196.913 470.658 195.79 469.486C194.667 468.306 194.105 466.732 194.105 464.762V464.347C194.105 463.037 194.353 461.869 194.85 460.844C195.354 459.81 196.054 459.005 196.949 458.427C197.853 457.841 198.829 457.548 199.879 457.548C201.596 457.548 202.931 458.113 203.883 459.245C204.835 460.376 205.311 461.995 205.311 464.103V465.043H196.363C196.396 466.345 196.774 467.399 197.499 468.205C198.231 469.002 199.159 469.401 200.282 469.401C201.079 469.401 201.755 469.238 202.308 468.913C202.861 468.587 203.346 468.156 203.761 467.619L205.14 468.693C204.033 470.394 202.373 471.244 200.16 471.244ZM199.879 459.403C198.967 459.403 198.202 459.737 197.584 460.404C196.965 461.063 196.583 461.991 196.437 463.188H203.053V463.017C202.988 461.869 202.678 460.982 202.125 460.355C201.572 459.721 200.823 459.403 199.879 459.403ZM210.072 457.792L210.145 459.452C211.154 458.183 212.472 457.548 214.1 457.548C216.891 457.548 218.299 459.123 218.324 462.272V471H216.065V462.26C216.057 461.308 215.838 460.604 215.406 460.148C214.983 459.692 214.32 459.464 213.417 459.464C212.684 459.464 212.041 459.66 211.488 460.05C210.934 460.441 210.503 460.954 210.194 461.588V471H207.936V457.792H210.072ZM224.793 454.594V457.792H227.259V459.538H224.793V467.729C224.793 468.257 224.903 468.656 225.123 468.925C225.343 469.185 225.717 469.315 226.246 469.315C226.507 469.315 226.865 469.267 227.32 469.169V471C226.726 471.163 226.148 471.244 225.587 471.244C224.578 471.244 223.817 470.939 223.304 470.329C222.792 469.718 222.535 468.852 222.535 467.729V459.538H220.13V457.792H222.535V454.594H224.793ZM236.292 459.818C235.951 459.761 235.58 459.733 235.182 459.733C233.701 459.733 232.695 460.364 232.167 461.625V471H229.908V457.792H232.105L232.142 459.318C232.883 458.138 233.932 457.548 235.292 457.548C235.731 457.548 236.065 457.605 236.292 457.719V459.818ZM243.617 471.244C241.826 471.244 240.37 470.658 239.247 469.486C238.124 468.306 237.562 466.732 237.562 464.762V464.347C237.562 463.037 237.81 461.869 238.307 460.844C238.811 459.81 239.511 459.005 240.406 458.427C241.31 457.841 242.286 457.548 243.336 457.548C245.053 457.548 246.388 458.113 247.34 459.245C248.292 460.376 248.768 461.995 248.768 464.103V465.043H239.82C239.853 466.345 240.231 467.399 240.956 468.205C241.688 469.002 242.616 469.401 243.739 469.401C244.536 469.401 245.212 469.238 245.765 468.913C246.319 468.587 246.803 468.156 247.218 467.619L248.597 468.693C247.49 470.394 245.83 471.244 243.617 471.244ZM243.336 459.403C242.424 459.403 241.66 459.737 241.041 460.404C240.423 461.063 240.04 461.991 239.894 463.188H246.51V463.017C246.445 461.869 246.135 460.982 245.582 460.355C245.029 459.721 244.28 459.403 243.336 459.403ZM250.855 464.286C250.855 462.227 251.332 460.591 252.284 459.379C253.236 458.158 254.497 457.548 256.068 457.548C257.679 457.548 258.937 458.118 259.84 459.257L259.95 457.792H262.013V470.683C262.013 472.392 261.504 473.738 260.487 474.723C259.478 475.708 258.119 476.2 256.41 476.2C255.458 476.2 254.526 475.997 253.614 475.59C252.703 475.183 252.007 474.625 251.527 473.917L252.699 472.562C253.667 473.759 254.851 474.357 256.251 474.357C257.35 474.357 258.204 474.048 258.814 473.429C259.433 472.811 259.742 471.94 259.742 470.817V469.682C258.839 470.723 257.606 471.244 256.043 471.244C254.497 471.244 253.244 470.622 252.284 469.376C251.332 468.131 250.855 466.435 250.855 464.286ZM253.126 464.542C253.126 466.032 253.431 467.204 254.042 468.058C254.652 468.904 255.506 469.328 256.605 469.328C258.029 469.328 259.075 468.681 259.742 467.387V461.356C259.05 460.095 258.013 459.464 256.629 459.464C255.531 459.464 254.672 459.892 254.054 460.746C253.435 461.601 253.126 462.866 253.126 464.542ZM273.585 471C273.455 470.74 273.349 470.276 273.268 469.608C272.218 470.699 270.965 471.244 269.508 471.244C268.206 471.244 267.136 470.878 266.297 470.146C265.467 469.405 265.052 468.469 265.052 467.338C265.052 465.963 265.573 464.896 266.615 464.14C267.665 463.375 269.138 462.992 271.034 462.992H273.231V461.955C273.231 461.165 272.995 460.539 272.523 460.075C272.051 459.603 271.355 459.367 270.436 459.367C269.63 459.367 268.954 459.57 268.409 459.977C267.864 460.384 267.591 460.876 267.591 461.454H265.321C265.321 460.795 265.553 460.16 266.017 459.55C266.489 458.931 267.123 458.443 267.921 458.085C268.727 457.727 269.61 457.548 270.57 457.548C272.092 457.548 273.284 457.93 274.146 458.695C275.009 459.452 275.457 460.498 275.489 461.833V467.912C275.489 469.124 275.644 470.089 275.953 470.805V471H273.585ZM269.837 469.279C270.545 469.279 271.217 469.096 271.852 468.729C272.486 468.363 272.946 467.887 273.231 467.301V464.591H271.461C268.694 464.591 267.311 465.401 267.311 467.021C267.311 467.729 267.547 468.282 268.019 468.681C268.491 469.079 269.097 469.279 269.837 469.279ZM278.956 469.816C278.956 469.425 279.07 469.1 279.298 468.839C279.534 468.579 279.884 468.449 280.348 468.449C280.812 468.449 281.161 468.579 281.397 468.839C281.642 469.1 281.764 469.425 281.764 469.816C281.764 470.19 281.642 470.504 281.397 470.756C281.161 471.008 280.812 471.134 280.348 471.134C279.884 471.134 279.534 471.008 279.298 470.756C279.07 470.504 278.956 470.19 278.956 469.816ZM278.968 459.037C278.968 458.646 279.082 458.321 279.31 458.061C279.546 457.8 279.896 457.67 280.36 457.67C280.824 457.67 281.174 457.8 281.41 458.061C281.654 458.321 281.776 458.646 281.776 459.037C281.776 459.411 281.654 459.725 281.41 459.977C281.174 460.229 280.824 460.355 280.36 460.355C279.896 460.355 279.546 460.229 279.31 459.977C279.082 459.725 278.968 459.411 278.968 459.037Z" fill="black"/>
<rect x="295" y="455" width="505" height="24" rx="12" fill="#BCB0B0"/>
<path d="M696.625 526.113H689.23V532.16H697.82V534H686.98V516.938H697.703V518.789H689.23V524.273H696.625V526.113ZM702.332 521.32L702.402 522.914C703.371 521.695 704.637 521.086 706.199 521.086C708.879 521.086 710.23 522.598 710.254 525.621V534H708.086V525.609C708.078 524.695 707.867 524.02 707.453 523.582C707.047 523.145 706.41 522.926 705.543 522.926C704.84 522.926 704.223 523.113 703.691 523.488C703.16 523.863 702.746 524.355 702.449 524.965V534H700.281V521.32H702.332ZM717.707 531.059L720.848 521.32H723.062L718.516 534H716.863L712.27 521.32H714.484L717.707 531.059ZM727.504 534H725.336V521.32H727.504V534ZM725.16 517.957C725.16 517.605 725.266 517.309 725.477 517.066C725.695 516.824 726.016 516.703 726.438 516.703C726.859 516.703 727.18 516.824 727.398 517.066C727.617 517.309 727.727 517.605 727.727 517.957C727.727 518.309 727.617 518.602 727.398 518.836C727.18 519.07 726.859 519.188 726.438 519.188C726.016 519.188 725.695 519.07 725.477 518.836C725.266 518.602 725.16 518.309 725.16 517.957ZM738.812 534C738.688 533.75 738.586 533.305 738.508 532.664C737.5 533.711 736.297 534.234 734.898 534.234C733.648 534.234 732.621 533.883 731.816 533.18C731.02 532.469 730.621 531.57 730.621 530.484C730.621 529.164 731.121 528.141 732.121 527.414C733.129 526.68 734.543 526.312 736.363 526.312H738.473V525.316C738.473 524.559 738.246 523.957 737.793 523.512C737.34 523.059 736.672 522.832 735.789 522.832C735.016 522.832 734.367 523.027 733.844 523.418C733.32 523.809 733.059 524.281 733.059 524.836H730.879C730.879 524.203 731.102 523.594 731.547 523.008C732 522.414 732.609 521.945 733.375 521.602C734.148 521.258 734.996 521.086 735.918 521.086C737.379 521.086 738.523 521.453 739.352 522.188C740.18 522.914 740.609 523.918 740.641 525.199V531.035C740.641 532.199 740.789 533.125 741.086 533.812V534H738.812ZM735.215 532.348C735.895 532.348 736.539 532.172 737.148 531.82C737.758 531.469 738.199 531.012 738.473 530.449V527.848H736.773C734.117 527.848 732.789 528.625 732.789 530.18C732.789 530.859 733.016 531.391 733.469 531.773C733.922 532.156 734.504 532.348 735.215 532.348ZM750.168 523.266C749.84 523.211 749.484 523.184 749.102 523.184C747.68 523.184 746.715 523.789 746.207 525V534H744.039V521.32H746.148L746.184 522.785C746.895 521.652 747.902 521.086 749.207 521.086C749.629 521.086 749.949 521.141 750.168 521.25V523.266Z" fill="black"/>
</svg>
